<?xml version="1.0" encoding="utf-8"?>
<!-- Generator: Adobe Illustrator 16.0.3, SVG Export Plug-In . SVG Version: 6.00 Build 0)  -->
<!DOCTYPE svg PUBLIC "-//W3C//DTD SVG 1.1//EN" "http://www.w3.org/Graphics/SVG/1.1/DTD/svg11.dtd">
<svg version="1.1" id="レイヤー_1" xmlns="http://www.w3.org/2000/svg" xmlns:xlink="http://www.w3.org/1999/xlink" x="0px"
	 y="0px" width="145px" height="145px" viewBox="0 0 145 145" enable-background="new 0 0 145 145" xml:space="preserve">
<path fill-rule="evenodd" clip-rule="evenodd" fill="#FFFFFF" d="M33.855,72.964H19.938h-5.102c-0.627,0-1.13-0.505-1.13-1.123
	v-9.013H9.275c-0.672,0-1.268,0.114-1.818,0.351c-0.535,0.229-1.04,0.588-1.481,1.07c-0.459,0.48-0.779,1-0.979,1.558
	c-0.198,0.557-0.274,1.168-0.228,1.825l1.756,27.208c0.077,1.182,0.611,2.238,1.421,2.994c0.794,0.756,1.879,1.212,3.086,1.212
	h104.678c0.84,0,1.602-0.194,2.261-0.572c0.657-0.381,1.221-0.937,1.634-1.658l19.814-33.988h-24.918v9.013
	c0,0.618-0.504,1.123-1.129,1.123H33.855L33.855,72.964z M86.759,48.896h15.218c0.627,0,1.129,0.497,1.129,1.115v9.793h6.478
	c0.612,0,1.132,0.503,1.132,1.123v9.784h1.526v-9.013c0-0.627,0.52-1.131,1.132-1.131h28.001l0,0c0.2,0,0.382,0.047,0.564,0.153
	c0.536,0.313,0.72,1.001,0.414,1.543L121.56,97.941c-0.626,1.064-1.465,1.91-2.474,2.483c-1.009,0.579-2.152,0.879-3.375,0.879
	H11.033c-1.788,0-3.423-0.688-4.629-1.827c-1.222-1.139-2.017-2.72-2.124-4.499l-1.758-27.2c-0.076-0.963,0.046-1.872,0.368-2.727
	c0.306-0.856,0.779-1.643,1.436-2.346c0.657-0.694,1.405-1.229,2.245-1.588c0.841-0.367,1.743-0.551,2.705-0.551h5.561
	c0.627,0,1.13,0.504,1.13,1.131v9.013h2.841v-9.807V50.01c0-0.618,0.504-1.115,1.131-1.115h12.801V31.609
	c0-0.619,0.505-1.122,1.116-1.122h26.308c0.625,0,1.13,0.503,1.13,1.122v20.075v19.026h1.527v-9.784c0-0.62,0.504-1.123,1.131-1.123
	h6.477V50.01c0-0.618,0.504-1.115,1.13-1.115H86.759L86.759,48.896z M100.845,51.141H87.892v8.663h6.477h6.477V51.141
	L100.845,51.141z M85.646,51.141H72.69v8.663h6.479h6.477V51.141L85.646,51.141z M108.454,62.056v8.655H95.497v-8.655h6.479H108.454
	L108.454,62.056z M93.237,62.056v8.655H80.284v-8.655h6.475H93.237L93.237,62.056z M78.036,62.056v8.655H65.082v-8.655h6.477H78.036
	L78.036,62.056z M34.985,70.711V50.01V32.74h24.047v18.945v19.026H34.985L34.985,70.711z M21.054,70.711v-9.807v-9.763h11.686v19.57
	H21.054z"/>
</svg>
