<?xml version="1.0" encoding="utf-8"?>
<!-- Generator: Adobe Illustrator 16.0.3, SVG Export Plug-In . SVG Version: 6.00 Build 0)  -->
<!DOCTYPE svg PUBLIC "-//W3C//DTD SVG 1.1//EN" "http://www.w3.org/Graphics/SVG/1.1/DTD/svg11.dtd">
<svg version="1.1" id="レイヤー_1" xmlns="http://www.w3.org/2000/svg" xmlns:xlink="http://www.w3.org/1999/xlink" x="0px"
	 y="0px" width="145px" height="145px" viewBox="-22.5 -22.5 145 145" enable-background="new -22.5 -22.5 145 145"
	 xml:space="preserve">
<path fill-rule="evenodd" clip-rule="evenodd" fill="#FFFFFF" d="M106.592,81.756L71.703,55.384l-21.51,16.249
	c-0.476,0.365-1.152,0.4-1.646,0.017l-21.51-16.266L-7.871,81.756c0.183,1.17,0.731,2.193,1.517,2.997l0,0
	c0.987,0.988,2.321,1.573,3.819,1.573h103.809c1.48,0,2.832-0.585,3.801-1.573C105.86,83.949,106.41,82.926,106.592,81.756
	L106.592,81.756z M70.881,52.625L49.352,68.89L27.859,52.634l-0.037-0.036L-7.925,25.576v-6.698c0-1.49,0.603-2.842,1.572-3.819
	c0.987-0.978,2.339-1.582,3.819-1.582h103.809c1.48,0,2.832,0.604,3.801,1.582h0.02c0.968,0.978,1.57,2.33,1.57,3.819v6.698
	l-35.748,27.03L70.881,52.625L70.881,52.625z M73.934,53.693l32.731-24.736v49.474L73.934,53.693L73.934,53.693z M-7.925,28.958
	l32.732,24.736L-7.925,78.432V28.958L-7.925,28.958z M-2.534,10.772h103.809c2.211,0,4.239,0.914,5.701,2.376v0.009
	c1.481,1.462,2.395,3.49,2.395,5.72v62.057c0,2.229-0.913,4.258-2.395,5.72c-1.462,1.462-3.49,2.377-5.701,2.377H-2.534
	c-2.211,0-4.24-0.915-5.702-2.358l-0.018-0.019l0,0l0,0c-1.462-1.462-2.376-3.49-2.376-5.72V18.878c0-2.239,0.914-4.258,2.376-5.729
	C-6.792,11.686-4.763,10.772-2.534,10.772z"/>
</svg>
