<?xml version="1.0" encoding="utf-8"?>
<!-- Generator: Adobe Illustrator 16.0.3, SVG Export Plug-In . SVG Version: 6.00 Build 0)  -->
<!DOCTYPE svg PUBLIC "-//W3C//DTD SVG 1.1//EN" "http://www.w3.org/Graphics/SVG/1.1/DTD/svg11.dtd">
<svg version="1.1" id="レイヤー_1" xmlns="http://www.w3.org/2000/svg" xmlns:xlink="http://www.w3.org/1999/xlink" x="0px"
	 y="0px" width="17px" height="19.428px" viewBox="247.5 246.286 17 19.428" enable-background="new 247.5 246.286 17 19.428"
	 xml:space="preserve">
<title></title>
<g id="icomoon-ignore">
</g>
<path fill="#E21414" d="M262.262,257.47c-0.26-0.255-0.834-0.39-1.707-0.401c-0.592-0.007-1.304,0.046-2.053,0.15
	c-0.335-0.193-0.681-0.404-0.952-0.657c-0.729-0.682-1.339-1.628-1.719-2.668c0.025-0.097,0.046-0.183,0.065-0.27
	c0,0,0.411-2.335,0.303-3.124c-0.015-0.108-0.024-0.14-0.054-0.224l-0.036-0.092c-0.112-0.258-0.331-0.531-0.675-0.516l-0.207-0.006
	c-0.383,0-0.696,0.196-0.777,0.489c-0.25,0.919,0.008,2.294,0.474,4.074l-0.119,0.29c-0.334,0.813-0.752,1.633-1.121,2.355
	l-0.048,0.095c-0.388,0.76-0.74,1.404-1.06,1.95l-0.33,0.175c-0.024,0.013-0.589,0.312-0.721,0.392
	c-1.125,0.671-1.87,1.434-1.993,2.038c-0.039,0.192-0.01,0.439,0.19,0.554l0.319,0.161c0.139,0.069,0.284,0.104,0.434,0.104
	c0.801,0,1.73-0.998,3.011-3.232c1.479-0.481,3.162-0.882,4.637-1.103c1.124,0.633,2.507,1.073,3.38,1.073
	c0.155,0,0.289-0.016,0.397-0.044c0.167-0.044,0.309-0.14,0.395-0.27c0.169-0.255,0.203-0.605,0.157-0.965
	C262.439,257.692,262.354,257.561,262.262,257.47L262.262,257.47z M250.302,261.73c0.146-0.398,0.724-1.188,1.579-1.889
	c0.054-0.043,0.186-0.167,0.307-0.282C251.294,260.984,250.696,261.553,250.302,261.73z M255.364,250.074
	c0.257,0,0.404,0.649,0.416,1.257c0.012,0.608-0.13,1.035-0.307,1.351c-0.146-0.468-0.217-1.205-0.217-1.687
	C255.256,250.996,255.245,250.074,255.364,250.074L255.364,250.074L255.364,250.074z M253.853,258.381
	c0.18-0.32,0.366-0.659,0.557-1.019c0.465-0.878,0.758-1.566,0.977-2.131c0.435,0.791,0.976,1.463,1.613,2.002
	c0.079,0.066,0.163,0.134,0.252,0.201C255.957,257.691,254.838,258.003,253.853,258.381L253.853,258.381L253.853,258.381z
	 M262.013,258.309c-0.079,0.049-0.305,0.077-0.45,0.077c-0.469,0-1.049-0.214-1.861-0.563c0.313-0.023,0.599-0.035,0.855-0.035
	c0.471,0,0.609-0.002,1.069,0.115S262.092,258.259,262.013,258.309L262.013,258.309z"/>
<path fill="#AAAAAA" d="M263.699,250.632c-0.421-0.575-1.009-1.247-1.654-1.892c-0.645-0.645-1.316-1.232-1.892-1.654
	c-0.979-0.718-1.453-0.801-1.725-0.801h-9.411c-0.837,0-1.518,0.681-1.518,1.518v16.393c0,0.837,0.681,1.518,1.518,1.518h13.964
	c0.837,0,1.518-0.681,1.518-1.518v-11.839C264.5,252.085,264.417,251.61,263.699,250.632L263.699,250.632z M261.187,249.599
	c0.583,0.583,1.04,1.108,1.377,1.544h-2.921v-2.921C260.079,248.56,260.605,249.017,261.187,249.599L261.187,249.599
	L261.187,249.599z M263.286,264.196c0,0.165-0.14,0.304-0.304,0.304h-13.964c-0.165,0-0.304-0.139-0.304-0.304v-16.393
	c0-0.165,0.139-0.304,0.304-0.304c0,0,9.41,0,9.411,0v4.25c0,0.335,0.271,0.607,0.607,0.607h4.25V264.196z"/>
</svg>
