<?xml version="1.0" encoding="utf-8"?>
<!-- Generator: Adobe Illustrator 16.0.3, SVG Export Plug-In . SVG Version: 6.00 Build 0)  -->
<!DOCTYPE svg PUBLIC "-//W3C//DTD SVG 1.1//EN" "http://www.w3.org/Graphics/SVG/1.1/DTD/svg11.dtd">
<svg version="1.1" id="レイヤー_1" xmlns="http://www.w3.org/2000/svg" xmlns:xlink="http://www.w3.org/1999/xlink" x="0px"
	 y="0px" width="378.845px" height="43.396px" viewBox="0 -3.18 378.845 43.396" enable-background="new 0 -3.18 378.845 43.396"
	 xml:space="preserve">
<path d="M101.195,29.058c-0.408,0.022-0.813-0.004-1.113,0c-0.662,0.007-1.323,0.007-1.984-0.001
	c-0.185-0.003-0.372-0.028-0.55-0.076c-0.076-0.021-0.178-0.121-0.188-0.194c-0.042-0.336-0.07-0.676-0.075-1.015
	c-0.011-0.708-0.004-1.417-0.004-2.126c0-0.841,0-0.84-0.841-0.841c-0.803,0-1.605-0.005-2.41-0.005
	c-0.937,0.001-1.873,0.001-2.809,0.016c-0.065,0.001-0.17,0.097-0.186,0.163c-0.047,0.203-0.082,0.414-0.079,0.622
	c0.017,1.378,0.05,2.756,0.064,4.134c0.011,1.063,0.002,2.126,0.002,3.188c0,0.126,0,0.251,0,0.348
	c0.055,0.035,0.063,0.048,0.073,0.048c1.973,0.006,3.944,0.013,5.918,0.002c0.088-0.001,0.234-0.142,0.253-0.236
	c0.055-0.284,0.063-0.579,0.083-0.87c0.018-0.235,0.138-0.358,0.375-0.37c1.054-0.048,2.107-0.112,3.164-0.136
	c0.633-0.015,1.267,0.063,1.899,0.061c2.205-0.014,4.408-0.048,6.613-0.063c0.469-0.003,0.937,0.061,1.404,0.063
	c0.534,0.003,0.704,0.042,0.711,0.658c0.008,0.61,0.123,0.76,0.597,0.757c1.674-0.009,3.348-0.025,5.02-0.073
	c0.563-0.018,0.563-0.062,0.563-0.633c0-2.492,0-4.984,0-7.479c0-0.476,0-0.479-0.459-0.476c-1.687,0.021-3.369,0.045-5.055,0.073
	c-0.148,0.003-0.303,0.033-0.443,0.078c-0.063,0.021-0.136,0.104-0.146,0.168c-0.039,0.24-0.069,0.485-0.077,0.729
	c-0.03,0.976-0.12,2.39-0.138,3.364c-0.004,0.271-0.121,0.009-0.39,0c-1.069-0.034-2.141,0.006-3.211,0
	c-0.284-0.002-0.298-0.248-0.295-0.522c0.014-1.122,0.005-2.244,0.005-3.366c0-0.124,0-0.247,0-0.455c-0.813,0-1.563,0-2.313,0
	c-0.969,0-1.938-0.005-2.905,0.005c-0.268,0.002-0.537,0.024-0.799,0.076c-0.091,0.019-0.267,0.064-0.274,0.151
	c-0.064,0.649,0.021,1.235,0,1.889C101.171,27.405,101.195,28.299,101.195,29.058z"/>
<path d="M162.594,1.746c-0.037,0.856-0.095,1.631-0.103,2.404c-0.016,1.605,0.005,3.214-0.008,4.819
	c-0.013,1.873-0.025,3.747-0.075,5.62c-0.021,0.788-0.253,1.047-1.091,1.068c-0.308,0.008-0.614-0.01-0.922,0.004
	c-0.316,0.014-0.492,0.219-0.458,0.49c0.073,0.601,0.142,1.201,0.21,1.803c0.053,0.46,0.201,0.563,0.587,0.563
	c0.979-0.01,1.961,0.001,2.941-0.008c0.229-0.002,0.466-0.025,0.692-0.071c0.975-0.196,1.92-0.4,2.596-1.276
	c0.449-0.582,0.741-1.226,0.899-1.896c0.182-0.765,0.226-1.573,0.23-2.363c0.021-3.603,0.01-7.204,0.01-10.809
	c0-0.125,0-0.25,0-0.347C166.236,1.746,164.416,1.746,162.594,1.746z"/>
<path d="M160.271,2.179c-0.383-0.022-0.694-0.055-1.008-0.059c-0.626-0.009-1.254-0.002-1.88-0.002c-0.72,0-1.44-0.019-2.16,0.01
	c-0.244,0.01-0.604-0.045-0.604,0.391c0.022,4.318,0.049,8.64,0.073,12.958c0,0.032,0.02,0.064,0.032,0.109c1.78,0,3.56,0,5.43,0
	C160.193,11.126,160.231,6.686,160.271,2.179z"/>
<path d="M84.446,2.851c-0.089-0.013-0.124-0.021-0.158-0.021C77.23,2.852,70.172,2.876,63.114,2.895
	c-0.229,0.001-0.315,0.085-0.311,0.313c0.01,0.438-0.008,0.875,0.005,1.313c0.011,0.396,0.023,0.796,0.083,1.188
	c0.019,0.121,0.179,0.297,0.293,0.313c0.428,0.06,0.862,0.083,1.296,0.083c3.667,0.006,7.334,0.003,11.001,0.003
	c2.397,0,4.797,0.004,7.194-0.003c0.469-0.001,0.938-0.023,1.403-0.082c0.132-0.017,0.347-0.186,0.351-0.288
	C84.458,4.779,84.446,3.825,84.446,2.851z"/>
<path d="M231.702,5.681c0-1.042,0-2.032,0-3.021c0-0.514-0.026-0.54-0.542-0.54c-5.011,0-10.021,0-15.028,0
	c-0.117,0-0.25-0.031-0.353,0.011c-0.104,0.043-0.33,0.244-0.33,0.244v3.309c0,0,0.091-0.002,0.356,0
	c1.283,0.011,2.566-0.011,3.85,0c3.859,0.028,7.72-0.022,11.577,0C231.374,5.682,231.514,5.681,231.702,5.681z"/>
<path d="M32.583,4.316c-0.716,0-1.428-0.013-2.138,0.006c-0.31,0.009-0.385-0.131-0.378-0.398c0.009-0.342,0.021-0.688-0.006-1.026
	c-0.017-0.198,0.02-0.48-0.312-0.492c-0.295-0.01-0.599-0.039-0.883,0.015c-0.162,0.029-0.402,0.189-0.424,0.321
	c-0.056,0.355-0.042,0.73-0.002,1.093c0.042,0.376-0.057,0.544-0.438,0.553c-1.188,0.027-2.377,0.052-3.565,0.071
	c-1.565,0.025-3.133,0.048-4.7,0.071c-0.022,0-0.052-0.008-0.069,0.003c-0.071,0.043-0.194,0.084-0.202,0.139
	c-0.038,0.315-0.078,0.639-0.055,0.954c0.008,0.098,0.208,0.248,0.327,0.257c0.645,0.049,1.29,0.083,1.938,0.079
	c1.625-0.01,3.251-0.051,4.876-0.063c0.609-0.004,1.219,0.046,1.828,0.064c0.243,0.007,0.309,0.137,0.329,0.359
	c0.061,0.634,0.12,1.259,0.334,1.875c0.313,0.908,0.592,1.822,1.074,2.666c0.519,0.907,1.191,1.685,1.917,2.416
	c0.402,0.407,0.858,0.772,1.331,1.102c0.658,0.458,1.458,0.167,1.755-0.592c0.046-0.119,0.115-0.234,0.129-0.356
	c0.024-0.226,0.088-0.486,0.004-0.674c-0.117-0.261-0.354-0.468-0.544-0.695c-0.013-0.015-0.044-0.015-0.066-0.017
	c-0.275-0.021-0.521-0.026-0.673,0.296c-0.188,0.405-0.335,0.441-0.651,0.142c-0.383-0.363-0.838-0.648-1.106-1.146
	c-0.27-0.496-0.716-0.901-0.942-1.411c-0.374-0.837-0.877-1.638-0.962-2.584c-0.041-0.454-0.214-0.915,0.024-1.351
	c0.299-0.034,0.588-0.086,0.878-0.096c1.105-0.032,2.212-0.058,3.317-0.072c0.856-0.013,0.838-0.008,0.868-0.857
	c0.016-0.39-0.171-0.477-0.487-0.514c-0.222-0.026-0.438-0.095-0.692-0.151c0.065-0.09,0.091-0.127,0.119-0.161
	c0.302-0.363,0.279-0.493-0.085-0.786c-0.368-0.297-0.716-0.62-1.085-0.916c-0.083-0.066-0.214-0.077-0.324-0.105
	c-0.444-0.121-0.679,0.235-0.977,0.439c-0.341,0.232-0.314,0.482,0.015,0.737C32.15,3.722,32.558,3.819,32.583,4.316z"/>
<path d="M29.484,22.04c-0.52,0-0.997,0-1.475,0c-0.295,0-0.591-0.004-0.886,0.001c-0.283,0.006-0.481,0.167-0.526,0.426
	c-0.041,0.236-0.021,0.497,0.04,0.729c0.028,0.113,0.204,0.256,0.324,0.268c0.536,0.053,1.077,0.058,1.616,0.086
	c0.243,0.015,0.488,0.035,0.729,0.079c0.066,0.013,0.148,0.104,0.17,0.178c0.044,0.153,0.075,0.318,0.075,0.479
	c0.006,1.253,0.012,2.505-0.006,3.757c-0.003,0.227-0.011,0.518-0.329,0.58c-0.229,0.045-0.461,0.074-0.691,0.079
	c-0.64,0.011-1.279,0.021-1.92,0c-1.021-0.031-1.057,0.193-1.021,1.077c0.013,0.293,0.121,0.438,0.449,0.438
	c1.26,0.008,2.52,0.052,3.778,0.062c1.63,0.013,3.261,0.017,4.892-0.003c0.642-0.007,0.684-0.083,0.684-0.707
	c0-0.095,0-0.188,0-0.282c-0.001-0.502-0.081-0.59-0.598-0.577c-0.457,0.01-0.913,0.063-1.369,0.063
	c-0.504-0.001-1.008-0.049-1.511-0.063c-0.59-0.019-0.59-0.013-0.634-0.603c-0.005-0.069-0.003-0.143-0.003-0.212
	c0-1.192,0.006-2.388-0.001-3.58c-0.003-0.563-0.058-0.749,0.768-0.761c0.573-0.009,1.147,0.048,1.725,0.063
	c1.051,0.028,1.007-0.083,0.987-0.995c-0.009-0.436-0.072-0.5-0.515-0.512c-0.847-0.021-1.691-0.046-2.539-0.068
	c-0.184-0.005-0.35-0.018-0.354-0.273c-0.016-0.67-0.039-1.339-0.071-2.009c-0.022-0.502-0.063-1.004-0.104-1.59
	c-0.441-0.008-0.896-0.035-1.345-0.011c-0.096,0.006-0.248,0.189-0.258,0.302c-0.049,0.573-0.068,1.147-0.081,1.724
	C29.475,20.76,29.484,21.339,29.484,22.04z"/>
<path d="M24.545,21.43c-0.151,0.213-0.229,0.356-0.339,0.466c-0.45,0.438-0.893,0.89-1.371,1.293
	c-0.386,0.326-0.813,0.604-1.237,0.881c-0.211,0.14-0.452,0.229-0.681,0.344c-0.562,0.272-1.114,0.562-1.686,0.813
	c-0.354,0.158-0.424,0.47-0.126,0.733c0.054,0.048,0.102,0.101,0.15,0.149c0.313,0.319,0.786,0.365,1.186,0.147
	c0.414-0.225,0.838-0.431,1.271-0.615c0.077-0.033,0.305,0.067,0.311,0.124c0.049,0.466,0.078,0.936,0.082,1.402
	c0.003,0.34-0.055,0.681-0.062,1.021c-0.011,0.566-0.008,1.136-0.001,1.702c0.006,0.479,0.136,0.602,0.603,0.603
	c0.166,0.001,0.331,0,0.497,0c0.547,0,0.548,0,0.548-0.53c0-1.404-0.003-2.813,0.003-4.217c0.001-0.188,0.053-0.375,0.082-0.571
	c0.292,0.085,0.546,0.132,0.774,0.233c0.242,0.106,0.459,0.271,0.688,0.405c0.07,0.041,0.157,0.063,0.215,0.115
	c0.528,0.49,1.145,0.492,1.488-0.372c0.142-0.354,0.121-0.483-0.215-0.649c-0.61-0.303-1.228-0.595-1.843-0.888
	c-0.26-0.124-0.317-0.404-0.107-0.605c0.245-0.234,0.504-0.456,0.753-0.688c0.374-0.349,0.752-0.689,1.112-1.052
	c0.088-0.088,0.177-0.252,0.154-0.357c-0.06-0.282-0.13-0.586-0.282-0.824c-0.241-0.378-0.505-0.738-1.078-0.666
	c-0.412,0.052-0.843-0.017-1.261-0.064c-0.187-0.021-0.438-0.008-0.482-0.293c-0.024-0.161-0.049-0.321-0.072-0.482
	c-0.04-0.264,0.011-0.64-0.143-0.762c-0.181-0.145-0.536-0.065-0.813-0.084c-0.036-0.002-0.072,0.004-0.105-0.001
	c-0.331-0.04-0.431,0.145-0.447,0.436c-0.021,0.37-0.063,0.739-0.097,1.117c-0.674,0.052-1.324,0.11-1.978,0.146
	c-0.274,0.016-0.53,0.043-0.627,0.341c-0.104,0.314-0.146,0.647,0.099,0.923c0.082,0.092,0.234,0.167,0.355,0.17
	c1.318,0.035,2.638,0.054,3.957,0.081C24.026,21.356,24.232,21.396,24.545,21.43z"/>
<path d="M24.437,8.916c0.914-0.063,1.842-0.145,2.771-0.182c0.876-0.034,0.877-0.014,0.876-0.865c0-0.503,0-0.504-0.519-0.504
	c-2.209,0-4.417-0.004-6.626,0.003c-0.313,0.001-0.629,0.035-0.941,0.068c-0.354,0.038-0.523,0.271-0.51,0.67
	c0.013,0.324,0.326,0.679,0.603,0.694c0.7,0.044,1.4,0.083,2.099,0.152c0.101,0.01,0.263,0.173,0.265,0.269
	c0.021,0.876,0.02,1.754,0.002,2.631c-0.002,0.09-0.14,0.238-0.23,0.255c-0.651,0.112-1.313,0.18-1.963,0.3
	c-0.313,0.057-0.646,0.146-0.906,0.315c-0.174,0.113,0.021,0.981,0.205,1.13c0.032,0.026,0.083,0.046,0.126,0.046
	c0.438,0.002,0.879,0.042,1.311-0.011c0.885-0.11,1.766-0.271,2.646-0.409c0.63-0.099,1.265-0.174,1.892-0.289
	c0.692-0.127,1.381-0.286,2.069-0.435c0.504-0.108,0.55-0.171,0.553-0.709c0-0.188-0.008-0.378,0.002-0.566
	c0.011-0.216-0.09-0.318-0.295-0.284c-0.398,0.069-0.796,0.15-1.19,0.236c-0.574,0.126-1.146,0.271-1.722,0.389
	c-0.229,0.048-0.466,0.021-0.538-0.255c-0.055-0.199-0.087-0.415-0.08-0.621C24.353,10.301,24.396,9.657,24.437,8.916z"/>
<path d="M251.97,15.102c-0.021,0.108-0.059,0.219-0.061,0.329c-0.011,0.459-0.008,0.459-0.479,0.459
	c-0.483,0-0.97-0.009-1.452,0.003c-0.385,0.008-0.769,0.04-1.166,0.063c-0.01,0.099-0.021,0.165-0.022,0.232
	c-0.023,1.852-0.057,3.701-0.069,5.552c-0.028,3.622-0.054,7.244-0.065,10.867c-0.001,0.331-0.078,0.452-0.433,0.447
	c-1.395-0.02-2.788-0.002-4.183-0.012c-0.387-0.003-0.773-0.021-1.155-0.077c-0.32-0.049-0.396-0.346-0.413-0.61
	c-0.019-0.252,0.062-0.51,0.058-0.767c-0.013-0.929-0.058-1.856-0.062-2.785c-0.001-0.753,0.039-1.505,0.063-2.257
	c0.003-0.06,0.004-0.117,0.004-0.177c0-3.427,0-6.853,0-10.277c0-0.08-0.009-0.16-0.016-0.292c-0.931,0-2.062,0-3.013,0
	c-0.03,0.275,0.007,0.524,0,0.774c-0.031,1.117,0.026,2.234,0,3.354c-0.021,0.882,0.009,1.764,0,2.646
	c-0.011,1.078-0.103,2.144-0.528,3.146c-0.322,0.754-0.651,1.509-1.051,2.223c-0.244,0.439-0.608,0.82-0.948,1.202
	c-0.604,0.68-1.317,1.226-2.064,1.75c-1.046,0.735-2.232,1.047-3.426,1.362c-0.691,0.185-1.403,0.29-2.108,0.422
	c-0.239,0.044-0.485,0.077-0.729,0.079c-1.167,0.009-2.335,0.004-3.555,0.004c0-0.595,0-1.167,0-1.741
	c0-1.036,0.001-1.014,1.054-1.049c0.578-0.021,1.17-0.071,1.727-0.222c0.643-0.171,1.248-0.473,1.874-0.704
	c0.598-0.223,1.122-0.563,1.587-0.985c0.281-0.255,0.539-0.549,0.755-0.86c0.46-0.663,0.955-1.315,1.102-2.142
	c0.072-0.411,0.177-0.822,0.19-1.234c0.047-1.211,0.066-2.426,0.077-3.638c0.03-3.314,0.045-6.631,0.074-9.945
	c0.014-1.509,0.045-3.016,0.069-4.523c0.008-0.519,0.212-0.609,0.936-0.704c1.043-0.139,2.081-0.335,3.108-0.56
	c0.776-0.169,1.541-0.405,2.303-0.641c0.661-0.205,1.316-0.438,1.967-0.681c0.811-0.304,1.621-0.61,2.412-0.959
	c0.577-0.254,1.118-0.589,1.687-0.865c0.634-0.312,1.282-0.59,1.92-0.896c0.245-0.118,0.474-0.272,0.708-0.412
	c0.261,0,0.521,0,0.779,0c0.152,0.324,0.313,0.646,0.459,0.975c0.397,0.889,0.804,1.772,1.187,2.668
	c0.215,0.499,0.06,0.75-0.465,0.906c-0.765,0.229-1.519,0.488-2.278,0.726c-1.06,0.33-2.11,0.685-3.183,0.967
	c-0.904,0.237-1.831,0.391-2.749,0.574c-0.841,0.169-1.683,0.328-2.521,0.502c-0.082,0.018-0.192,0.099-0.213,0.171
	c-0.052,0.188-0.09,0.389-0.095,0.585v1.359v2.818h2.604c0,0,4.336,0.049,6.504,0.079c0.894,0.012,1.786,0.032,2.679,0.079
	c0.222,0.012,0.519-0.034,0.623,0.281C251.97,13.494,251.97,14.298,251.97,15.102z"/>
<path d="M51.117,33.89c-0.051-0.148-0.143-0.298-0.145-0.445c-0.014-0.944,0-1.891-0.009-2.836c-0.02-2.087-0.042-4.174-0.071-6.26
	c-0.012-0.766-0.043-1.528-0.068-2.292c-0.012-0.349-0.101-0.406-0.438-0.304c-1.15,0.352-2.302,0.7-3.452,1.052
	c-0.26,0.077-0.519,0.153-0.832,0.248c-0.041-0.271-0.092-0.46-0.095-0.649c-0.01-0.731,0.005-1.465-0.008-2.196
	c-0.004-0.232,0.076-0.327,0.308-0.368c1.088-0.192,1.999-0.769,2.894-1.375c0.374-0.254,0.782-0.465,1.124-0.756
	c0.498-0.429,0.955-0.906,1.421-1.372c0.234-0.234,0.459-0.482,0.672-0.739c0.396-0.479,0.858-0.928,1.152-1.465
	c0.394-0.719,0.878-1.396,1.096-2.211c0.129-0.485,0.351-0.947,0.513-1.427c0.047-0.138,0.036-0.294,0.053-0.454
	c-0.486-0.037-0.939-0.103-1.394-0.1c-1.779,0.011-3.561,0.047-5.339,0.063c-0.443,0.003-0.891-0.031-1.333-0.078
	c-0.086-0.009-0.228-0.146-0.229-0.226c-0.016-1.049-0.011-2.097-0.011-3.203c1.019-0.019,2.004-0.032,2.987-0.055
	c0.195-0.004,0.393-0.034,0.604-0.055c0.038-1.567,0.073-3.105,0.11-4.669c2.021,0,4.034,0,6.072,0
	c0.107,1.492-0.128,3.003,0.204,4.567c1.368,0.028,2.739,0.056,4.111,0.09c0.192,0.005,0.385,0.047,0.641,0.08
	c-0.064,0.59-0.1,1.147-0.193,1.695c-0.107,0.625-0.233,1.252-0.418,1.858c-0.287,0.949-0.571,1.906-0.965,2.813
	c-0.302,0.694-0.748,1.328-1.166,1.966c-0.362,0.552-0.777,1.067-1.166,1.604c-0.182,0.25-0.139,0.484,0.134,0.591
	c0.683,0.269,1.236,0.732,1.828,1.141c0.439,0.303,0.861,0.634,1.311,0.924c0.226,0.146,0.317,0.321,0.315,0.577
	c-0.005,0.53-0.021,1.063,0.004,1.596c0.023,0.548,0.091,1.094,0.136,1.64c0.005,0.069-0.005,0.141-0.01,0.229
	c-0.511,0.148-0.897-0.178-1.313-0.342c-0.634-0.251-1.248-0.555-1.872-0.829c-0.285-0.126-0.572-0.251-0.867-0.354
	c-0.382-0.137-0.471-0.075-0.473,0.316c-0.004,1.229-0.01,2.457,0,3.688c0.017,1.887,0.048,3.771,0.068,5.657
	c0.007,0.709,0.002,1.418,0.001,2.127c-0.001,0.438-0.044,0.479-0.496,0.479c-1.417,0.001-2.835-0.001-4.253,0.003
	c-0.122,0.001-0.243,0.039-0.364,0.062C51.637,33.89,51.377,33.89,51.117,33.89z"/>
<path d="M0,11.769c0.329-0.502,0.687-0.987,0.979-1.51c0.55-0.972,1.063-1.963,1.588-2.948C2.63,7.194,2.663,7.062,2.753,6.815
	c-0.603,0-1.113,0.002-1.626,0C0.354,6.811,0.211,6.7,0.274,5.956C0.28,5.885,0.25,5.8,0.282,5.747
	c0.051-0.086,0.131-0.205,0.211-0.215C0.99,5.466,1.49,5.427,1.989,5.38c0.268-0.024,0.542-0.021,0.799-0.086
	c0.104-0.027,0.23-0.198,0.241-0.314c0.068-0.697,0.11-1.397,0.151-2.099c0.014-0.234,0.126-0.34,0.354-0.339
	C3.771,2.544,4.008,2.555,4.243,2.54c0.225-0.015,0.286,0.116,0.3,0.296c0.05,0.7,0.116,1.398,0.137,2.101
	c0.01,0.341,0.13,0.456,0.462,0.447C5.814,5.368,6.488,5.38,7.226,5.38C7.39,4.679,7.58,3.98,7.711,3.27
	c0.093-0.495,0.145-0.584,0.628-0.584c0.236,0,0.473,0.003,0.708,0.007c0.021,0,0.043,0.016,0.107,0.038c0,0.347,0,0.708,0,1.069
	c0,0.463,0.104,0.58,0.575,0.581c0.358,0.001,0.718-0.034,1.085-0.054c0.056-0.637,0.106-1.227,0.16-1.834c0.46,0,0.893,0,1.354,0
	c0.059,0.592,0.114,1.181,0.177,1.815c0.257,0.024,0.519,0.064,0.78,0.074c0.821,0.03,1.646,0.047,2.468,0.076
	c0.256,0.01,0.512,0.043,0.767,0.07c0.056,0.007,0.151,0.031,0.153,0.057c0.03,0.266,0.08,0.536,0.047,0.795
	c-0.016,0.111-0.198,0.243-0.331,0.287c-0.194,0.063-0.411,0.077-0.619,0.079c-1.04,0.009-2.079,0.007-3.118,0.01
	c-0.021,0-0.042,0.019-0.111,0.051c0,0.563,0,1.149,0,1.839c1.25,0,2.447,0,3.646,0c0.555,0,0.555,0,0.556,0.538
	c0,0.095-0.005,0.188,0,0.284c0.015,0.319-0.132,0.462-0.457,0.477c-0.783,0.034-1.563,0.089-2.362,0.136
	C13.862,9.51,14.195,9.708,14.4,9.938c0.383,0.429,0.827,0.8,1.245,1.194c0.446,0.424,0.905,0.838,1.336,1.277
	c0.105,0.108,0.141,0.3,0.179,0.46c0.056,0.233-0.113,0.278-0.295,0.339c-0.178,0.06-0.325,0.216-0.505,0.263
	c-0.399,0.101-0.737-0.075-1.011-0.351c-0.83-0.834-1.646-1.685-2.474-2.521c-0.089-0.089-0.227-0.131-0.362-0.208
	c-0.035,0.523-0.077,0.988-0.097,1.456c-0.032,0.774-0.058,1.55-0.067,2.325c-0.003,0.204-0.104,0.281-0.271,0.289
	c-0.295,0.015-0.592,0.016-0.887,0.001c-0.233-0.011-0.346-0.158-0.354-0.392c-0.021-0.573-0.046-1.148-0.07-1.724
	c-0.022-0.516-0.035-1.032-0.082-1.545c-0.011-0.104-0.139-0.245-0.24-0.278c-0.089-0.028-0.247,0.04-0.327,0.115
	c-0.556,0.518-1.098,1.047-1.644,1.573c-0.26,0.251-0.535,0.487-0.771,0.761c-0.423,0.49-1.312,0.566-1.804,0.132
	c-0.271-0.237-0.222-0.572,0.068-0.796c0.479-0.37,0.936-0.771,1.4-1.159C7.677,10.893,8,10.65,8.283,10.367
	c0.332-0.333,0.627-0.702,0.995-1.12c-0.3-0.065-0.525-0.136-0.756-0.164C8.04,9.025,7.55,8.994,7.066,8.931
	c-0.09-0.013-0.237-0.114-0.239-0.18C6.816,8.441,6.803,8.117,6.877,7.819c0.048-0.189-0.003-0.273-0.084-0.428
	c-0.398-0.76-1.103-0.54-1.727-0.565C4.973,6.822,4.843,6.908,4.781,6.99c-0.256,0.342-0.06,1.107,0.312,1.322
	c0.432,0.25,0.854,0.512,1.274,0.78c0.267,0.173,0.319,0.588,0.128,0.838c-0.261,0.339-0.682,0.396-1.002,0.146
	C5.33,9.952,5.161,9.824,4.975,9.745C4.912,9.719,4.72,9.824,4.703,9.897c-0.058,0.235-0.075,0.482-0.083,0.729
	c-0.03,0.952-0.046,1.904-0.076,2.856c-0.007,0.231-0.021,0.472-0.082,0.691c-0.026,0.096-0.18,0.199-0.289,0.218
	c-0.207,0.034-0.425-0.003-0.636,0.014c-0.317,0.025-0.413-0.151-0.426-0.423c-0.047-1.042-0.092-2.085-0.146-3.128
	c-0.006-0.125-0.05-0.247-0.094-0.449c-0.272,0.41-0.52,0.768-0.753,1.132c-0.164,0.253-0.293,0.531-0.479,0.769
	c-0.095,0.119-0.269,0.217-0.42,0.245C0.782,12.632,0.374,12.504,0,12.265C0,12.1,0,11.935,0,11.769z M7.978,7.576
	c0.864,0,1.658,0.014,2.449-0.015c0.116-0.004,0.313-0.188,0.324-0.307c0.041-0.396,0.023-0.802,0.008-1.202
	c-0.003-0.078-0.098-0.21-0.16-0.218c-0.384-0.044-0.771-0.102-1.154-0.071C9.021,5.794,8.54,5.791,8.411,6.375
	C8.364,6.586,8.234,6.778,8.157,6.985C8.09,7.162,8.046,7.347,7.978,7.576z"/>
<path d="M126.545,16.021c0,0.881,0.218,1.625,0.218,2.462c-0.425,0.033-0.863-0.016-1.306,0c-0.482,0.019-0.969-0.004-1.453,0
	c-3.044,0.021-6.088-0.025-9.132,0c-2.379,0.021-4.759-0.021-7.137,0c-2.653,0.024-5.487,0.047-8.142,0.085
	c-0.165,0.003-0.421,0.289-0.463,0.413c-0.081,0.24-0.042,0.521-0.032,0.785c0.001,0.027,0.139,0.071,0.214,0.071
	c3.292,0.028,6.585,0.073,9.877,0.07c6.081-0.007,12.162-0.04,18.242-0.063c0.021,0,0.045,0.01,0.085,0.021
	c0.01,0.033,0.031,0.076,0.032,0.119c0.026,3.021,0.064,6.041,0.063,9.063c0,0.898-0.325,1.718-0.931,2.398
	c-0.089,0.101-0.235,0.146-0.348,0.228c-0.793,0.576-1.698,0.812-2.644,1.053c-1.427,0.362-2.851,0.188-4.273,0.245
	c-0.472,0.02-0.648-0.18-0.674-0.651c-0.027-0.526-0.059-1.055-0.068-1.582c-0.008-0.391,0.087-0.475,0.474-0.473
	c0.516,0.003,1.022,0.021,1.513-0.211c0.384-0.182,0.833-0.76,0.848-1.188c0.025-0.74,0.049-1.48,0.071-2.222
	c0.023-0.765,0.063-1.526,0.064-2.292c0.002-0.514-0.047-1.026-0.076-1.594c-4.726-0.19-9.439,0.033-14.152,0.022
	c-4.713-0.013-9.428,0.105-14.168,0.168c0-6.354,0-12.646,0-18.99c0.116,0,0.24,0,0.364,0c0.957,0,1.915,0.016,2.871-0.006
	c0.478-0.011,0.95-0.104,1.428-0.122c0.188-0.008,0.381,0.125,0.568,0.119c0.867-0.026,1.731-0.087,2.6-0.12
	c0.472-0.02,0.943-0.004,1.417-0.016c0.729-0.019,1.457-0.04,2.185-0.077c0.108-0.005,0.262-0.074,0.312-0.161
	c0.272-0.479,0.518-0.978,0.776-1.466c0.201-0.379,0.368-0.784,0.627-1.118c0.146-0.187,0.445-0.346,0.682-0.352
	c1.861-0.052,3.725-0.069,5.587-0.079c0.229-0.001,0.458,0.108,0.688,0.167c-0.098,0.226-0.166,0.468-0.297,0.67
	c-0.149,0.228-0.351,0.421-0.536,0.622c-0.378,0.409-0.77,0.809-1.14,1.225c-0.074,0.084-0.131,0.232-0.111,0.336
	c0.013,0.067,0.175,0.149,0.271,0.151c0.23,0.003,0.463-0.051,0.694-0.057c1.261-0.028,2.521-0.056,3.78-0.071
	c0.863-0.01,1.729-0.002,2.594-0.002c1.479,0,2.958,0,4.438,0.001c0.477,0,0.53,0.062,0.537,0.521
	c0.046,3.173,0.092,6.346,0.145,9.518c0.004,0.262,0.055,0.523,0.083,0.799c-0.422,0.036-0.793,0.089-1.165,0.095
	c-0.944,0.013-1.892,0-2.835,0.005c-3.684,0.021-7.365,0.042-11.047,0.071c-1.584,0.014-3.167,0.045-4.751,0.069
	c-1.402,0.021-2.805,0.045-4.206,0.072c-0.186,0.004-0.378,0.02-0.55,0.081c-0.09,0.033-0.194,0.176-0.196,0.271
	c-0.005,0.255,0.033,0.513,0.076,0.765c0.009,0.055,0.108,0.125,0.174,0.133c0.325,0.036,0.651,0.074,0.979,0.075
	c1.666,0.007,3.287-0.05,4.953-0.062c1.779-0.013,5.34,0,5.34,0h5.143c0,0,6.916,0.022,10.373,0
	C126.232,16.021,126.367,16.021,126.545,16.021z M98.998,8.289h18.253c0,0-0.035-1.131-0.074-1.43
	c-0.009-0.068-0.127-0.169-0.203-0.177c-0.372-0.041-0.747-0.079-1.121-0.075c-1.626,0.015-15.729,0.262-16.587,0.274
	c-0.205,0.003-0.275,0.109-0.28,0.275C98.976,7.521,98.998,8.289,98.998,8.289z M113.844,12.062c0-0.054,0-0.106,0-0.161
	c0.856,0,1.717,0.031,2.57-0.02c0.259-0.015,0.698,0.131,0.776-0.312c0.056-0.309-0.005-0.64-0.033-0.959
	c-0.004-0.042-0.123-0.1-0.193-0.105c-0.407-0.031-0.816-0.074-1.227-0.071c-1.601,0.013-3.202,0.046-4.804,0.063
	c-0.219,0.003-0.438-0.058-0.656-0.051c-1.021,0.034-2.037,0.1-3.058,0.12c-1.774,0.038-3.55,0.056-5.324,0.073
	c-0.813,0.008-1.629-0.015-2.442,0.011c-0.137,0.004-0.284,0.166-0.392,0.286c-0.06,0.065-0.039,0.2-0.063,0.301
	c-0.133,0.575,0.14,0.934,0.727,0.947c0.069,0.002,0.143,0.001,0.212,0c1.886-0.022,3.771-0.046,5.653-0.07
	c1.104-0.016,2.206-0.045,3.311-0.051C110.549,12.056,112.196,12.062,113.844,12.062z"/>
<path d="M191.925,32.738V13.227c-2.249,1.063-4.634,2.063-7.174,2.153c0-0.978-0.004-1.931,0.008-2.885
	c0.001-0.075,0.102-0.19,0.178-0.213c0.188-0.057,0.391-0.102,0.583-0.093c0.995,0.046,1.854-0.374,2.707-0.792
	c0.55-0.271,1.104-0.563,1.579-0.94c0.402-0.32,0.71-0.771,1.037-1.178c0.229-0.285,0.475-0.576,0.631-0.903
	c0.338-0.707,0.689-1.418,0.914-2.165c0.244-0.813,0.373-1.666,0.51-2.509c0.106-0.666,0.146-1.344,0.225-2.016
	c0.028-0.267,0.229-0.282,0.443-0.282c1.878,0.004,3.757,0.003,5.636,0.003c0.296,0,0.592,0.012,0.887-0.005
	c0.256-0.013,0.389,0.076,0.351,0.344c-0.078,0.551-0.111,1.112-0.254,1.646c-0.216,0.813-0.467,1.62-0.776,2.399
	c-0.187,0.464-0.514,0.872-0.781,1.304c-0.163,0.262-0.334,0.521-0.501,0.779c0.014,0.041,0.025,0.083,0.039,0.124
	c1.007,0,2.014-0.007,3.021,0.001c2.261,0.02,4.521,0.039,6.78,0.073c0.715,0.011,1.429,0.065,2.144,0.102c0,1.133,0,2.27,0,3.457
	c-2.061,0-4.074,0-6.09,0c-2.009,0-4.018,0-6.104,0c-0.058,1.247-0.022,2.47-0.02,3.689c0.001,0.088,0.128,0.238,0.213,0.25
	c0.34,0.052,0.687,0.073,1.028,0.081c1.39,0.03,2.779,0.05,4.169,0.075c1.178,0.021,2.354,0.043,3.53,0.07
	c0.705,0.018,1.409,0.051,2.113,0.067c0.191,0.005,0.278,0.071,0.277,0.271c-0.004,0.814-0.002,1.63,0,2.444
	c0.001,0.313-0.195,0.354-0.448,0.354c-3.126,0.021-6.252,0.042-9.378,0.071c-0.489,0.007-0.979,0.061-1.494,0.094
	c0,1.315,0,2.633,0,3.966c0.486,0.034,0.974,0.081,1.462,0.101c0.459,0.019,0.921,0,1.382,0.004
	c2.216,0.021,4.434,0.044,6.648,0.073c0.492,0.007,0.982,0.052,1.476,0.065c0.188,0.005,0.284,0.064,0.283,0.268
	c-0.005,1.018,0.002,2.031-0.006,3.049c-0.002,0.122-0.059,0.244-0.095,0.392c-0.61,0-1.211-0.005-1.813,0.001
	c-2.301,0.021-4.6,0.04-6.897,0.073c-0.809,0.013-1.616,0.067-2.477,0.104c-0.055,1.832-0.164,5.538-0.164,5.538L191.925,32.738z"/>
<path d="M85.511,18.647c0-0.506-0.001-0.508-0.516-0.506c-6.397,0.022-12.795,0.048-19.192,0.069
	c-0.98,0.004-1.962-0.016-2.941,0.006c-0.764,0.017-0.829,0.047-0.832,0.847c-0.008,4.665-0.004,9.331-0.003,13.996
	c0,0.095-0.01,0.19,0.003,0.282c0.038,0.268,0.13,0.431,0.468,0.423c1.742-0.042,3.486-0.062,5.229-0.075
	c0.265-0.002,0.353-0.09,0.349-0.352c-0.006-0.354,0.027-0.708,0.043-1.032c0.515-0.04,0.945-0.096,1.378-0.104
	c1.4-0.033,2.803-0.071,4.204-0.069c1.813,0.002,3.629,0.043,5.443,0.064c0.395,0.005,0.453,0.067,0.466,0.479
	c0.011,0.285,0.034,0.569,0.052,0.854c1.981,0,3.893,0,5.85,0c0-0.145,0-0.249,0-0.354C85.511,28.333,85.511,23.49,85.511,18.647z
	 M67.941,23.742c-0.004-0.744-0.02-1.389-0.002-2.031c0.002-0.099,0.139-0.271,0.22-0.273c0.567-0.03,1.139-0.028,1.708-0.035
	c0.352-0.003,0.703,0,1.071,0c0.158,0.738,0.209,1.438,0.074,2.145c-0.017,0.08-0.177,0.188-0.271,0.188
	C69.839,23.747,68.938,23.742,67.941,23.742z M70.951,28.74c-0.017,0.07-0.133,0.158-0.213,0.17c-0.345,0.049-0.693,0.071-0.993,0.1
	c-0.483-0.033-0.916-0.055-1.346-0.099c-0.176-0.018-0.337-0.076-0.333-0.319c0.011-0.604-0.002-1.207,0.018-1.81
	c0.002-0.064,0.151-0.18,0.232-0.179c0.796,0.011,1.595,0.028,2.39,0.076c0.111,0.006,0.28,0.155,0.311,0.27
	C71.166,27.548,71.082,28.148,70.951,28.74z M79.538,28.719c-0.917,0-1.739,0-2.63,0c0-0.76,0-1.454,0-2.138
	c0.663,0,1.28,0,1.896,0.001c0.022,0,0.046,0.008,0.068,0.011c0.183,0.021,0.472-0.017,0.523,0.078
	c0.112,0.197,0.124,0.464,0.136,0.704C79.551,27.803,79.538,28.232,79.538,28.719z M79.609,23.549c-0.943,0-1.78,0-2.633,0
	c-0.186-0.729-0.139-1.433-0.021-2.188c0.68-0.101,1.377-0.232,2.083-0.114c0.523,0.088,0.563,0.166,0.567,0.721
	C79.614,22.469,79.609,22.971,79.609,23.549z"/>
<path d="M168.048,20.552c-1.612,0-3.228,0-4.84,0c-0.808,0-1.611,0-2.419,0c-1.287,0-2.575,0.008-3.863-0.003
	c-0.668-0.005-0.692-0.058-0.733-0.7c-0.019-0.265-0.068-0.529-0.145-0.783c-0.025-0.089-0.167-0.204-0.256-0.205
	c-1.843-0.012-3.687-0.011-5.527-0.005c-0.188,0-0.37,0.051-0.396,0.304c-0.042,0.403-0.101,0.807-0.153,1.221
	c-0.632,0.036-1.229,0.101-1.823,0.098c-1.97-0.009-3.938-0.055-5.906-0.063c-3.034-0.013-6.07-0.004-9.106-0.003
	c-0.351,0-0.579,0.205-0.587,0.548c-0.011,0.521-0.061,1.048,0.013,1.559c0.091,0.646,0.104,0.776,0.78,0.753
	c1.117-0.041,2.234-0.067,3.354-0.07c0.87-0.002,1.739,0.038,2.608,0.069c0.136,0.005,0.27,0.063,0.402,0.097
	c0,0.032-0.001,0.066-0.001,0.101c-0.903,0.321-1.793,0.694-2.714,0.95c-1.302,0.364-2.623,0.67-3.946,0.938
	c-0.377,0.077-0.501,0.217-0.5,0.555c0.001,0.523,0.001,1.048,0.001,1.59c0.217,0.01,0.333,0.011,0.446,0.021
	c0.872,0.079,1.725-0.09,2.578-0.219c0.629-0.096,1.271-0.163,1.882-0.328c0.926-0.249,1.83-0.571,2.742-0.865
	c0.438-0.143,0.57-0.061,0.568,0.423c-0.003,0.455-0.05,0.912-0.063,1.368c-0.03,0.906-0.021,0.938-0.917,1.116
	c-0.772,0.152-1.563,0.245-2.348,0.322c-0.617,0.062-1.242,0.05-1.863,0.08c-0.496,0.024-0.688,0.181-0.685,0.579
	c0.013,0.965,0.038,1.93,0.072,2.895c0.007,0.209,0.064,0.429,0.343,0.438c0.283,0.009,0.578,0.05,0.85-0.01
	c1.23-0.271,2.467-0.531,3.682-0.869c1.626-0.452,3.237-0.956,4.848-1.468c1.101-0.35,2.168-0.811,3.281-1.104
	c0.854-0.225,1.567-1.011,2.623-0.639c0-0.739,0-1.436,0-2.178c-0.216,0.019-0.451,0.005-0.672,0.06
	c-0.843,0.205-1.678,0.438-2.521,0.641c-0.082,0.021-0.262-0.098-0.289-0.186c-0.063-0.194-0.078-0.41-0.08-0.618
	c-0.005-0.83-0.004-1.66,0.015-2.488c0.003-0.099,0.104-0.233,0.195-0.28c0.299-0.149,0.609-0.278,0.926-0.395
	c0.5-0.18,1.004-0.354,1.512-0.506c0.363-0.108,0.658,0.009,0.859,0.338c0.419,0.686,0.845,1.369,1.229,2.072
	c0.43,0.784,1.051,1.414,1.647,2.052c0.398,0.426,0.929,0.729,1.406,1.077c0.553,0.401,1.097,0.821,1.678,1.183
	c0.958,0.593,2.016,0.971,3.062,1.381c1.834,0.722,3.75,1.043,5.682,1.28c1.021,0.126,2.067,0.063,3.104,0.081
	c0.028,0.001,0.06-0.028,0.027-0.014c0-0.859,0.006-1.683-0.008-2.503c-0.001-0.086-0.098-0.213-0.18-0.243
	c-0.147-0.059-0.317-0.054-0.479-0.085c-0.905-0.185-1.814-0.36-2.718-0.563c-0.72-0.161-1.386-0.457-1.992-0.879
	c-0.104-0.071-0.196-0.159-0.295-0.24c0.101-0.098,0.184-0.23,0.303-0.284c0.835-0.364,1.674-0.719,2.516-1.063
	c0.324-0.134,0.407-0.387,0.198-0.647c-0.732-0.919-1.464-1.84-2.19-2.765c-0.034-0.044-0.022-0.121-0.05-0.273
	c0.79,0,1.541,0.011,2.293-0.002c0.775-0.013,1.552-0.036,2.325-0.077c0.118-0.008,0.331-0.136,0.331-0.204
	C168.155,22.151,168.266,21.387,168.048,20.552z M160.813,23.748c-0.575,0.497-1.153,0.992-1.76,1.451
	c-0.109,0.083-0.39,0.05-0.524-0.034c-0.173-0.106-0.307-0.308-0.41-0.491c-0.241-0.427-0.454-0.869-0.705-1.357
	c1.205-0.195,2.416-0.142,3.712-0.022C161.002,23.475,160.935,23.643,160.813,23.748z"/>
<path d="M152.579,8.499c0,0.64,0.001,1.157,0,1.746c-0.001,0.221-0.088,0.33-0.34,0.333c-1.142,0.012-2.282,0.041-3.425,0.065
	c-0.895,0.021-1.787,0.044-2.682,0.072c-0.186,0.007-0.364-0.016-0.541,0.037c-0.07,0.021-0.155,0.145-0.155,0.221
	c0,0.216,0.11,0.629,0.146,0.938c1.482,0,2.941-0.009,4.4,0.003c0.847,0.006,1.691,0.047,2.539,0.064
	c0.192,0.004,0.271,0.076,0.275,0.272c0.02,0.857-0.012,1.637-0.017,2.494c-0.003,0.63-0.268,1.206-0.583,1.729
	c-0.395,0.651-0.892,1.254-1.587,1.601c-0.512,0.255-1.069,0.47-1.632,0.558c-0.794,0.125-1.607,0.11-2.414,0.168
	c-0.227,0.017-0.354-0.097-0.373-0.282c-0.078-0.802-0.181-1.604,0.008-2.409c0.246-0.033,0.481-0.044,0.703-0.104
	c0.104-0.026,0.221-0.136,0.259-0.234c0.075-0.204,0.124-0.423,0.146-0.642c0.049-0.483,0.009-0.554-0.45-0.63
	c-0.288-0.047-0.59-0.039-0.882-0.014c-0.204,0.019-0.34,0.136-0.354,0.391c-0.063,1.264-0.145,2.525-0.224,3.876
	c-1.684,0.049-3.367,0.09-5.094-0.042c-0.028-0.285-0.076-0.569-0.08-0.855c-0.012-0.792,0.002-1.583-0.007-2.375
	c-0.005-0.255-0.024-0.516-0.081-0.764c-0.021-0.095-0.162-0.229-0.253-0.231c-0.696-0.021-1.396-0.011-2.137-0.011
	c-0.046,0.472-0.119,0.92-0.127,1.369c-0.021,0.99-0.007,1.981-0.007,3.024c-0.227-0.011-0.433-0.017-0.638-0.029
	c-0.115-0.007-0.229-0.037-0.347-0.04c-1.295-0.024-2.591-0.054-3.886-0.066c-0.249-0.003-0.328-0.093-0.327-0.334
	c0.006-1.984,0.001-3.971,0.008-5.955c0.001-0.17-0.175-0.162-0.146-0.339c0.061-0.01,0.105-0.021,0.15-0.021
	c1.768-0.024,3.536-0.042,5.304-0.076c0.714-0.014,1.429-0.063,2.15-0.096c0.011-0.03,0.027-0.063,0.029-0.095
	c0.031-0.807,0.209-1.29-0.604-1.304c-1.64-0.029-3.276,0.03-4.914,0c-0.646-0.014-1.29,0.029-1.977,0
	c-0.068-0.437-0.226-0.743-0.09-1.225c0.049-0.177-0.041-0.241-0.051-0.438c-0.011-0.23,0.097-0.329,0.328-0.329
	c1.287,0,2.575-0.012,3.863,0c0.855,0.009,1.716-0.012,2.573,0c0.277,0.004,0.563-0.021,0.835-0.081
	c0.1-0.021,0.217-0.174,0.235-0.282c0.025-0.138-0.041-0.668-0.067-0.824c-0.085-0.007-0.259-0.107-0.327-0.108
	c-1.646-0.023-3.293,0.029-4.939,0c-0.704-0.014-1.436,0.019-2.14,0c-0.253-0.007-0.273,0.022-0.272-0.267
	c0.002-0.551-0.007-0.976-0.017-1.525c-0.004-0.22,0.021-0.444,0.08-0.655c0.026-0.1,0.153-0.217,0.256-0.241
	c0.463-0.109,0.629-0.484,0.794-0.852c0.219-0.483,0.313-0.993,0.289-1.529c-0.021-0.447,0.011-0.463,0.447-0.463
	c1.666,0,3.332,0,4.998,0c0.115,0,0.229,0,0.464,0c-0.426,1.222-1.078,2.15-2.229,2.812c0.246,0.039,0.428,0.088,0.608,0.093
	c0.555,0.011,1.109-0.001,1.665,0.006c0.191,0.002,0.275-0.063,0.279-0.265c0.017-0.774,0.056-1.551,0.063-2.325
	c0.004-0.339-0.045-0.677-0.063-1.016c-0.015-0.227,0.087-0.365,0.322-0.365c1.677-0.002,3.354-0.001,5.081-0.001
	c0,0.146,0,0.271,0,0.396c0,0.993-0.002,1.985,0,2.979c0.001,0.55,0.117,0.602,0.651,0.602c0.851,0,1.701,0.013,2.552,0
	c0.813-0.011,1.622,0.009,2.434,0c0.386-0.004,0.771,0.029,1.154,0.078c0.084,0.012,0.212,0.15,0.218,0.237
	c0.041,0.728-0.032,1.14,0.008,1.866c0.018,0.322-0.08,0.43-0.415,0.428c-1.88-0.015-3.758-0.01-5.637-0.004
	c-0.256,0.001-0.522,0.006-0.761,0.086c-0.104,0.036-0.094,0.572-0.126,0.721c-0.035,0.158,0.011,0.439,0.269,0.457
	c0.522,0.032,1.003,0.015,1.523,0.021c1.618,0.019,3.237,0.007,4.855,0.007C152.274,8.499,152.402,8.499,152.579,8.499z"/>
<path d="M231.561,9.749c0-0.47-0.002-0.471-0.467-0.471c-4.455,0-8.909-0.003-13.364,0.004c-0.646,0.001-1.29,0.049-1.938,0.065
	c-0.193,0.005-0.271,0.081-0.274,0.275c-0.019,0.857-0.055,1.716-0.065,2.575c-0.013,0.787-0.002,1.575-0.002,2.363
	c0,3.863,0.008,7.729-0.008,11.591c-0.003,0.831-0.072,1.662-0.142,2.49c-0.054,0.645-0.364,0.987-0.991,1.128
	c-0.406,0.091-0.819,0.151-1.232,0.204c-0.251,0.031-0.383,0.146-0.393,0.397c-0.023,0.621-0.057,1.243-0.068,1.864
	c-0.01,0.424,0.096,0.537,0.509,0.521c0.808-0.033,1.612-0.104,2.421-0.133c0.636-0.022,1.204-0.237,1.726-0.568
	c0.454-0.288,0.887-0.616,1.303-0.958c0.332-0.272,0.696-0.551,0.921-0.904c0.434-0.684,0.82-1.404,1.142-2.147
	c0.259-0.601,0.427-1.246,0.564-1.887c0.106-0.498,0.109-1.02,0.155-1.53c0.071-0.801,0.169-1.603,0.201-2.404
	c0.035-0.873,0.003-1.748,0.012-2.623c0.002-0.239,0.049-0.479,0.072-0.703c1.339-0.179,2.63-0.109,3.909,0.032
	c0.042,0.425,0.062,0.774,0.119,1.119c0.016,0.09,0.146,0.218,0.23,0.225c0.515,0.044,1.029,0.063,1.545,0.081
	c0.236,0.01,0.474-0.002,0.711,0.003c0.998,0.021,1.998,0.053,2.998,0.059c0.088,0,0.246-0.148,0.253-0.236
	c0.064-0.981,0.14-1.968,0.146-2.951C231.573,14.735,231.561,12.242,231.561,9.749z M225.567,15.399c-1.331,0-2.569,0-3.865,0
	c-0.124-0.915-0.057-1.791-0.053-2.719c1.358,0,2.631,0,3.918,0C225.567,13.604,225.567,14.478,225.567,15.399z"/>
<path d="M187.358,1.273c-0.088,0.452-0.128,1.079-0.267,1.491c-0.288,0.864-0.616,1.719-0.953,2.566
	c-0.244,0.61-0.509,1.216-0.804,1.804c-0.194,0.39-0.453,0.748-0.697,1.111c-0.306,0.45-0.632,0.888-0.934,1.342
	c-0.06,0.088-0.065,0.222-0.068,0.333c-0.008,0.391-0.002,0.78-0.004,1.17c-0.021,4.852-0.043,9.702-0.07,14.555
	c-0.016,2.265-0.047,4.526-0.069,6.792c-0.002,0.092-0.009,0.186-0.014,0.303c-1.933,0-3.851,0-5.813,0c0-6.203,0-12.403,0-18.72
	c-2.063,1.265-4.465,1.454-6.746,1.831c-0.057-0.466,0.018-0.854,0-1.245c-0.023-0.507,0.016-1.016,0-1.521
	c-0.007-0.219,0.068-0.225,0.277-0.266c0.683-0.134,1.305-0.218,2.041-0.403c1.139-0.298,1.435-0.567,2.109-0.936
	c0.323-0.176,0.643-0.384,0.911-0.633c0.392-0.362,0.767-0.751,1.093-1.172c1.103-1.416,1.589-3.079,1.955-4.807
	c0.188-0.891,0.154-1.788,0.268-2.678c0.021-0.172,0.048-0.345,0.085-0.516c0.049-0.231,0.183-0.412,0.438-0.403
	c0.425,0.016,0.851,0.012,1.274,0c0.646-0.017,1.291-0.004,1.938,0c1.165,0.007,2.33-0.03,3.496,0
	C186.966,1.277,187.123,1.224,187.358,1.273z"/>
<path d="M64.244,16.088c0-2.771,0-5.515,0-8.278c6.236,0,12.455,0,18.68,0c0.036,0.525,0.1,1.037,0.103,1.549
	c0.012,2.125,0.001,4.252,0.011,6.377c0.001,0.272-0.079,0.373-0.362,0.372c-6.082-0.006-12.165-0.005-18.246-0.005
	C64.378,16.102,64.332,16.095,64.244,16.088z M77.138,12.847c0-0.642,0-1.234,0-1.861c-2.325,0-4.59,0-6.881,0
	c0,0.646,0,1.23,0,1.861C72.574,12.847,74.829,12.847,77.138,12.847z"/>
<path d="M12.555,26.187c0.146,0.206,0.24,0.358,0.354,0.497c0.549,0.671,1.103,1.339,1.656,2.005
	c0.099,0.118,0.212,0.222,0.318,0.331c0.347,0.357,0.32,0.729-0.068,1.021c-0.027,0.021-0.048,0.056-0.078,0.071
	c-0.61,0.356-0.563,0.538-1.061-0.162c-0.154-0.219-0.304-0.456-0.511-0.613c-0.14-0.105-0.381-0.138-0.564-0.111
	c-0.699,0.096-1.394,0.231-2.089,0.348c-0.732,0.118-1.466,0.239-2.201,0.34c-0.382,0.052-0.77,0.063-1.154,0.084
	c-1.498,0.073-2.997,0.139-4.495,0.219c-0.294,0.018-0.461-0.11-0.576-0.355c-0.161-0.342-0.299-0.688-0.08-1.053
	c0.03-0.051,0.113-0.09,0.175-0.096c0.337-0.031,0.68-0.098,1.013-0.066c0.787,0.069,1.341-0.214,1.695-0.93
	c0.215-0.434,0.485-0.839,0.725-1.26c0.038-0.065,0.039-0.154,0.065-0.271c-0.266-0.031-0.504-0.069-0.743-0.084
	c-0.948-0.054-1.896-0.092-2.845-0.153c-0.111-0.008-0.252-0.115-0.313-0.218c-0.067-0.109-0.074-0.267-0.084-0.402
	c-0.039-0.592,0.1-0.734,0.688-0.734c3.84,0,7.68-0.003,11.519,0.005c0.563,0,1.126,0.036,1.688,0.07
	c0.233,0.015,0.404,0.117,0.372,0.398c-0.011,0.094-0.002,0.188-0.002,0.283c0,0.563-0.177,0.74-0.768,0.747
	c-0.604,0.006-1.205-0.007-1.808,0.005C13.136,26.107,12.887,26.151,12.555,26.187z M11.432,26.204
	c-0.209-0.043-0.362-0.098-0.517-0.102c-0.4-0.014-0.803-0.004-1.203-0.004c-0.581,0-1.163-0.016-1.742,0.01
	c-0.151,0.007-0.354,0.091-0.437,0.207c-0.413,0.604-0.792,1.227-1.185,1.843c-0.124,0.193-0.058,0.382,0.168,0.398
	c0.264,0.021,0.534,0.021,0.797-0.008c0.751-0.079,1.5-0.187,2.25-0.27c0.42-0.047,0.85-0.033,1.262-0.113
	c0.278-0.056,0.649-0.156,0.773-0.36c0.154-0.259-0.204-0.479-0.347-0.718c-0.086-0.146-0.058-0.373-0.037-0.56
	C11.229,26.436,11.332,26.351,11.432,26.204z"/>
<path d="M32.583,4.316c-0.024-0.497-0.434-0.595-0.706-0.807c-0.329-0.255-0.354-0.505-0.016-0.737
	c0.299-0.204,0.532-0.562,0.978-0.439c0.11,0.029,0.241,0.04,0.324,0.105c0.369,0.296,0.717,0.619,1.085,0.916
	c0.363,0.293,0.386,0.423,0.085,0.786c-0.028,0.034-0.054,0.071-0.119,0.161c0.254,0.058,0.472,0.125,0.691,0.151
	c0.317,0.037,0.504,0.124,0.488,0.514c-0.031,0.851-0.013,0.846-0.868,0.857c-1.105,0.016-2.212,0.039-3.317,0.072
	c-0.29,0.009-0.579,0.063-0.878,0.096c-0.239,0.438-0.064,0.896-0.024,1.351c0.084,0.947,0.588,1.748,0.962,2.584
	c0.228,0.51,0.674,0.916,0.942,1.411c0.27,0.497,0.725,0.781,1.106,1.146c0.315,0.301,0.461,0.265,0.65-0.142
	c0.151-0.322,0.396-0.315,0.674-0.296c0.022,0.002,0.056,0.001,0.066,0.017c0.188,0.229,0.427,0.436,0.544,0.695
	c0.084,0.188,0.021,0.448-0.004,0.674c-0.015,0.123-0.083,0.238-0.129,0.356c-0.297,0.759-1.097,1.049-1.756,0.592
	c-0.472-0.327-0.927-0.692-1.33-1.102c-0.726-0.731-1.399-1.509-1.918-2.416c-0.482-0.844-0.759-1.757-1.073-2.666
	C28.83,7.581,28.77,6.957,28.71,6.323c-0.021-0.226-0.086-0.354-0.329-0.36c-0.609-0.021-1.219-0.068-1.828-0.064
	c-1.625,0.012-3.252,0.053-4.877,0.063c-0.646,0.003-1.292-0.031-1.936-0.08c-0.12-0.009-0.32-0.159-0.328-0.257
	C19.39,5.31,19.429,4.987,19.467,4.67c0.008-0.055,0.131-0.096,0.202-0.139c0.019-0.011,0.047-0.003,0.069-0.003
	c1.567-0.023,3.135-0.046,4.7-0.071c1.188-0.021,2.377-0.044,3.565-0.071c0.379-0.009,0.479-0.177,0.438-0.553
	c-0.041-0.361-0.054-0.736,0.002-1.093c0.021-0.132,0.262-0.292,0.424-0.321c0.285-0.053,0.588-0.022,0.883-0.015
	c0.33,0.012,0.295,0.292,0.312,0.492c0.027,0.34,0.015,0.686,0.006,1.026c-0.007,0.269,0.068,0.408,0.378,0.398
	C31.156,4.303,31.867,4.316,32.583,4.316z"/>
<path d="M3.936,23.115c-0.037-0.092-0.073-0.163-0.097-0.239c-0.131-0.438-0.315-0.477-0.705-0.24
	c-0.48,0.29-0.984,0.554-1.505,0.766c-0.525,0.215-0.781,0.108-1.147-0.322c-0.045-0.055-0.095-0.105-0.149-0.15
	c-0.431-0.345-0.36-0.595,0.164-0.816c0.895-0.38,1.779-0.779,2.648-1.214c0.837-0.418,1.666-0.858,2.462-1.35
	c0.65-0.398,1.243-0.894,1.872-1.331c0.462-0.321,0.933-0.636,1.418-0.921c0.097-0.057,0.311-0.005,0.419,0.07
	c0.534,0.367,1.05,0.766,1.576,1.146c0.583,0.421,1.161,0.849,1.759,1.245c0.615,0.409,1.231,0.819,1.883,1.167
	c0.721,0.388,1.48,0.701,2.221,1.055c0.114,0.055,0.216,0.139,0.313,0.22c0.195,0.158,0.2,0.296,0.046,0.531
	c-0.51,0.784-0.745,0.69-1.523,0.456c-0.264-0.08-0.539-0.17-0.766-0.32c-0.245-0.162-0.361-0.069-0.412,0.141
	c-0.061,0.244-0.204,0.265-0.41,0.265c-2.574-0.005-5.149,0.008-7.726-0.011C5.504,23.251,4.733,23.165,3.936,23.115z M5.175,21.681
	c0.012,0.03,0.021,0.063,0.034,0.093c2.365,0,4.729,0,7.186,0c-0.098-0.151-0.129-0.258-0.201-0.31
	c-0.241-0.173-0.504-0.315-0.746-0.487c-0.707-0.505-1.405-1.021-2.112-1.523c-0.193-0.14-0.403-0.229-0.643-0.077
	c-0.398,0.257-0.804,0.504-1.201,0.763c-0.323,0.21-0.637,0.435-0.959,0.644c-0.349,0.226-0.704,0.437-1.053,0.659
	C5.37,21.509,5.276,21.599,5.175,21.681z"/>
<path d="M29.484,22.04c0-0.701-0.009-1.279,0.003-1.856c0.013-0.574,0.032-1.148,0.081-1.724c0.01-0.11,0.162-0.296,0.258-0.302
	c0.449-0.024,0.901,0.003,1.345,0.011c0.039,0.586,0.079,1.088,0.104,1.59c0.032,0.67,0.057,1.339,0.071,2.009
	c0.005,0.258,0.171,0.271,0.354,0.273c0.846,0.022,1.691,0.049,2.538,0.068c0.441,0.012,0.505,0.076,0.515,0.512
	c0.02,0.912,0.063,1.023-0.987,0.995c-0.575-0.017-1.15-0.071-1.725-0.063c-0.823,0.012-0.771,0.196-0.768,0.761
	c0.007,1.192,0.001,2.388,0.001,3.58c0,0.069-0.002,0.143,0.003,0.212c0.043,0.59,0.044,0.584,0.634,0.603
	c0.503,0.016,1.007,0.063,1.511,0.063c0.456,0.001,0.912-0.054,1.369-0.063c0.517-0.013,0.597,0.075,0.598,0.577
	c0,0.094,0,0.188,0,0.282c0,0.624-0.042,0.7-0.684,0.707c-1.63,0.02-3.262,0.016-4.892,0.003c-1.26-0.01-2.52-0.054-3.778-0.062
	c-0.328-0.002-0.438-0.146-0.449-0.438c-0.035-0.884-0.001-1.108,1.021-1.077c0.641,0.021,1.28,0.011,1.92,0
	c0.23-0.005,0.466-0.034,0.691-0.079c0.318-0.063,0.326-0.354,0.329-0.58c0.018-1.252,0.012-2.504,0.006-3.757
	c0-0.161-0.031-0.326-0.075-0.479c-0.021-0.071-0.104-0.165-0.17-0.178c-0.24-0.044-0.485-0.064-0.729-0.079
	c-0.539-0.028-1.08-0.033-1.616-0.086c-0.121-0.012-0.296-0.152-0.324-0.268c-0.062-0.231-0.08-0.492-0.04-0.729
	c0.045-0.259,0.243-0.42,0.526-0.426c0.295-0.005,0.591-0.001,0.887-0.001C28.488,22.04,28.966,22.04,29.484,22.04z"/>
<path d="M24.545,21.43c-0.313-0.034-0.52-0.073-0.727-0.078c-1.318-0.027-2.638-0.046-3.957-0.081
	c-0.121-0.003-0.273-0.078-0.355-0.17c-0.246-0.273-0.202-0.606-0.099-0.923c0.097-0.298,0.352-0.325,0.627-0.341
	c0.651-0.033,1.304-0.094,1.978-0.146c0.033-0.378,0.074-0.747,0.097-1.117c0.019-0.291,0.117-0.476,0.447-0.436
	c0.034,0.005,0.07-0.001,0.105,0.001c0.278,0.019,0.635-0.061,0.813,0.084c0.152,0.122,0.103,0.498,0.143,0.762
	c0.023,0.161,0.048,0.321,0.072,0.481c0.044,0.286,0.297,0.271,0.482,0.294c0.418,0.05,0.85,0.116,1.261,0.064
	c0.573-0.072,0.837,0.287,1.078,0.666c0.152,0.238,0.224,0.542,0.282,0.824c0.021,0.105-0.066,0.271-0.154,0.357
	c-0.36,0.36-0.738,0.703-1.112,1.052c-0.25,0.229-0.508,0.451-0.753,0.688c-0.21,0.2-0.151,0.481,0.107,0.605
	c0.615,0.293,1.23,0.585,1.843,0.887c0.336,0.166,0.355,0.299,0.215,0.65c-0.345,0.864-0.96,0.862-1.488,0.372
	c-0.058-0.055-0.146-0.074-0.215-0.115c-0.229-0.136-0.446-0.299-0.688-0.405c-0.229-0.104-0.483-0.148-0.774-0.233
	c-0.028,0.196-0.081,0.385-0.082,0.571c-0.006,1.404-0.003,2.813-0.003,4.217c0,0.53,0,0.53-0.548,0.53
	c-0.166,0-0.331,0.001-0.497,0c-0.468-0.001-0.597-0.124-0.603-0.603c-0.007-0.567-0.011-1.136,0.001-1.702
	c0.006-0.34,0.063-0.681,0.062-1.021c-0.004-0.47-0.032-0.938-0.082-1.402c-0.006-0.057-0.232-0.157-0.311-0.124
	c-0.434,0.187-0.856,0.393-1.271,0.615c-0.397,0.218-0.872,0.172-1.186-0.147c-0.05-0.051-0.099-0.104-0.15-0.149
	c-0.297-0.266-0.229-0.575,0.126-0.733c0.568-0.254,1.124-0.541,1.686-0.813c0.229-0.112,0.469-0.204,0.681-0.344
	c0.423-0.276,0.852-0.555,1.237-0.881c0.479-0.403,0.921-0.854,1.371-1.293C24.317,21.787,24.393,21.643,24.545,21.43z"/>
<path d="M24.437,8.916c-0.04,0.741-0.084,1.385-0.104,2.029c-0.007,0.207,0.025,0.422,0.08,0.621
	c0.072,0.274,0.311,0.304,0.538,0.255c0.575-0.118,1.146-0.263,1.722-0.389c0.396-0.086,0.792-0.167,1.189-0.236
	c0.207-0.035,0.308,0.067,0.296,0.284c-0.01,0.188-0.002,0.378-0.003,0.566c-0.002,0.539-0.047,0.602-0.552,0.709
	c-0.688,0.147-1.377,0.308-2.069,0.435c-0.628,0.115-1.262,0.19-1.892,0.289c-0.883,0.138-1.763,0.299-2.646,0.409
	c-0.431,0.053-0.873,0.013-1.311,0.011c-0.043,0-0.095-0.02-0.126-0.046c-0.185-0.147-0.379-1.018-0.205-1.13
	c0.262-0.17,0.593-0.26,0.906-0.315c0.649-0.12,1.311-0.188,1.963-0.3c0.093-0.017,0.229-0.165,0.23-0.255
	c0.018-0.877,0.02-1.754-0.002-2.631c-0.002-0.096-0.165-0.259-0.265-0.269C21.49,8.885,20.79,8.846,20.09,8.803
	c-0.275-0.018-0.59-0.371-0.603-0.695c-0.015-0.399,0.154-0.632,0.51-0.67c0.313-0.033,0.628-0.067,0.941-0.068
	c2.209-0.007,4.417-0.003,6.626-0.003c0.518,0,0.518,0.001,0.519,0.504c0.001,0.853,0,0.831-0.876,0.865
	C26.278,8.772,25.351,8.854,24.437,8.916z"/>
<path fill="none" stroke="#0F2950" stroke-width="3" stroke-miterlimit="10" d="M29.603,18.639"/>
<g>
	<path fill="#2991D0" d="M372.323,26.162c-0.025,0.021-0.054,0.038-0.08,0.061c-0.918,0.545-1.787,1.273-2.798,1.856
		c-0.349,0.201-0.699,0.394-1.052,0.587c-0.557,0.303-1.117,0.592-1.682,0.87c-0.152,0.075-0.305,0.148-0.458,0.222
		c-5.056,2.417-7.94,3.325-13.391,4.567c-1.487,0.341-5.939,1.419-7.453,1.61c-14.446,1.835-22.174,1.922-26.325,1.967
		c-3.648,0.037-7.911-0.213-11.562-0.386c-6.571-0.311-13.026-1.458-19.44-2.839c-3.69-0.795-7.315-1.804-10.874-3.048
		c-0.164-0.058-0.325-0.117-0.489-0.176c-0.413-0.146-0.827-0.295-1.24-0.448c-0.611-0.229-1.223-0.466-1.829-0.708
		c-1.195-0.479-2.67-0.256-4.017-0.355c-0.025,0.117-0.049,0.234-0.072,0.35l0,0c0,0.001,0,0.001,0,0.001
		c0.706,0.354,1.414,0.697,2.115,1.06c3.633,1.875,7.459,3.263,11.365,4.373c0.558,0.158,1.117,0.311,1.678,0.458
		c3.928,1.036,7.947,1.782,11.965,2.415c0.02,0.002,0.038,0.005,0.056,0.008c6.887,1.079,14.149,1.485,21.114,1.591
		c0.017,0,0.034,0.001,0.053,0.001c3.905,0.059,7.829-0.025,11.717-0.361c0.424-0.038,0.848-0.082,1.272-0.12
		c4.624-0.385,9.23-0.969,13.826-1.677c0.139-0.021,0.281-0.039,0.42-0.063c0.836-0.13,1.667-0.275,2.496-0.431
		c0.037-0.007,0.073-0.015,0.11-0.022c5.095-0.962,10.077-2.401,14.922-4.308c1.177-0.463,2.349-0.938,3.504-1.447
		c0.026-0.012,0.053-0.022,0.078-0.034c0.379-0.167,0.753-0.339,1.127-0.515c0.168-0.079,0.337-0.158,0.505-0.24
		c0.206-0.099,0.409-0.202,0.614-0.306c0.312-0.157,0.622-0.314,0.931-0.48c0.012-0.007,0.022-0.013,0.035-0.02
		c1.462-0.788,2.859-1.686,4.129-2.737c0.099-0.084,0.197-0.167,0.296-0.256c0.409-0.353,0.8-0.724,1.176-1.112
		c0.193-0.188,0.391-0.378,0.602-0.571C374.229,25.182,373.277,25.409,372.323,26.162z"/>
	<path fill="#2D68AD" d="M295.496,18.76c-0.354,0.751-0.622,1.295-0.872,1.846C294.874,20.055,295.142,19.511,295.496,18.76z"/>
	<path fill="#2D68AD" d="M299.943,16.758c-0.334,0.276-0.476,0.53-0.501,0.795C299.467,17.289,299.609,17.035,299.943,16.758
		c1.888-1.566,3.682-3.244,5.51-4.882c0.487-0.438,0.964-0.886,1.631-1.502c-0.669,0.616-1.144,1.064-1.631,1.502
		C303.624,13.514,301.829,15.191,299.943,16.758z"/>
	<path fill="#2D68AD" d="M297.882,13.366c-0.067,0.15-0.089,0.32-0.207,0.771l0,0C297.794,13.688,297.815,13.517,297.882,13.366
		c1.016-2.265,2.049-4.521,3.057-6.791c0.506-1.144,0.858-1.75,0.839-2.074c0.02,0.324-0.333,0.931-0.839,2.074
		C299.932,8.846,298.899,11.102,297.882,13.366z"/>
	<path fill="#2991D0" d="M309.098,15.573c0.339-0.736,0.66-1.479,1.012-2.289c0.117-0.27,0.238-0.546,0.364-0.832
		c-0.661,0-1.266-0.015-1.841-0.018c-0.576-0.003-1.122,0.004-1.665,0.051c-0.358,0.029-0.849,0.361-1,0.686
		c-1.125,2.408-2.216,4.835-3.242,7.288c-0.557,1.329-0.26,2.555,0.975,3.258c0.905,0.515,2.044,0.819,3.089,0.85
		c0.206,0.006,0.403,0.009,0.596,0.01c2.881,0.005,4.332-0.685,5.443-3.529c0.566-1.447,1.273-2.838,1.9-4.261
		c0.632-1.435,1.245-2.877,1.958-4.53c-0.345,0-0.677,0.001-0.998,0.003c-0.321,0.003-0.633,0.005-0.937,0.006
		c-0.608,0.002-1.188,0-1.769-0.019l0,0l0,0c-0.706-0.021-1.082,0.251-1.368,0.91c-1.2,2.759-2.457,5.492-3.693,8.237
		c-0.179,0.395-0.435,0.765-0.793,0.771c-0.12,0.003-0.25-0.034-0.393-0.122c-0.209-0.131-0.208-0.896-0.05-1.264
		C307.444,19.024,308.296,17.31,309.098,15.573z"/>
	<path fill="#2D68AD" d="M284.471,22.236c0.366-0.561,0.664-1.171,0.944-1.781c1.091-2.386,2.18-4.772,3.231-7.178
		c0.215-0.492,0.458-0.707,1.015-0.679c0.986,0.048,1.977,0.013,3.15,0.013l0,0c-1.174,0-2.164,0.035-3.15-0.013
		c-0.558-0.028-0.8,0.188-1.016,0.679c-1.051,2.405-2.142,4.793-3.231,7.178C285.135,21.065,284.836,21.675,284.471,22.236
		c-0.096,0.146-0.432,0.265-0.62,0.249C284.038,22.501,284.374,22.382,284.471,22.236z"/>
	<path fill="#2D68AD" d="M287.435,12.71c-0.734,1.622-1.431,3.157-2.111,4.66C286.004,15.867,286.7,14.332,287.435,12.71z"/>
	<path fill="#2991D0" d="M279.456,21.153c1.159-2.466,2.296-4.942,3.395-7.436c0.318-0.725,0.759-1.049,1.548-1.015
		c0.705,0.03,1.412,0.02,2.208,0.013c-0.796,0.007-1.503,0.017-2.208-0.013c-0.79-0.035-1.229,0.29-1.548,1.015
		C281.751,16.21,280.614,18.686,279.456,21.153c-0.412,0.874-0.402,1.752-0.05,2.432C279.054,22.904,279.045,22.028,279.456,21.153z
		"/>
	<path fill="#2991D0" d="M344.127,6.486c-0.143,0.006-0.279,0.024-0.411,0.052c-0.913,0.194-1.525,0.883-1.529,1.778
		c-0.009,1.217,0.759,2.019,1.907,1.995c1.402-0.028,2.179-0.76,2.16-2.035C346.242,7.29,345.221,6.432,344.127,6.486z"/>
	<path fill="#2991D0" d="M378.833,18.178c-0.006-0.11-0.005-0.22-0.015-0.334c-0.359-3.822-2.683-6.51-5.485-8.759
		c-3.729-2.991-8.197-4.624-12.626-6.252c-0.998-0.366-2.003-0.713-3.014-1.04c-6.072-1.97-12.312-3.228-18.641-3.965
		c-1.054-0.122-2.111-0.23-3.168-0.325c-5.319-0.475-10.683-0.695-16.052-0.668c-0.241-0.002-0.483-0.007-0.724-0.01
		c-4.282-0.035-8.595,0.075-12.845,0.561c-0.444,0.051-0.887,0.116-1.332,0.171c-3.869,0.353-7.721,0.83-11.541,1.438
		c-3.797,0.605-7.571,1.426-11.202,2.703c-3.569,1.257-7.116,2.614-10.571,4.153c-3.483,1.55-6.789,3.475-9.25,6.5
		c-0.745,0.916-1.413,1.862-1.896,2.871c-0.715,1.492-1.021,3.12-0.551,4.994c0.492,1.951,1.176,3.754,2.889,5.083l0,0l0,0
		c0.152-0.174,0.292-0.333,0.433-0.492c0.181-0.207,0.357-0.408,0.528-0.604c0.063-0.071,0.128-0.146,0.19-0.218
		c-1.293-1.761-2.095-3.655-2.076-5.812c0.014-1.444,0.438-2.678,1.123-3.755c0.684-1.077,1.628-1.999,2.68-2.815
		c3.205-2.492,6.885-4.192,10.595-5.801c0.52-0.226,1.047-0.477,1.596-0.582c0.388-0.074,0.971-0.06,1.183,0.173
		c0.184,0.2,0.065,0.812-0.094,1.163c-1.109,2.453-2.228,4.904-3.443,7.305c-0.214,0.423-0.882,0.791-1.381,0.855
		c-1.09,0.137-2.205,0.066-3.312,0.072c-1.388,0.007-2.485,0.429-3.213,1.411c-0.242,0.328-0.443,0.718-0.601,1.176
		c-0.194,0.563-0.489,1.093-0.724,1.644c-0.175,0.411-0.326,0.831-0.564,1.445c1.097-0.172,2.188,0.276,2.775-0.564
		c0.084-0.12,0.158-0.267,0.221-0.445c0.086-0.249,0.19-0.458,0.315-0.632c0.372-0.52,0.917-0.716,1.666-0.695
		c0.735,0.019,1.474-0.08,2.21-0.087c0.566-0.008,0.916,0.18,0.604,0.846c-0.856,1.832-1.7,3.668-2.542,5.503
		c-0.118,0.257-0.245,0.491-0.39,0.698c-0.435,0.622-1.026,1.009-1.989,1.056c-1.183,0.058-1.625,0.119-1.789,0.632
		c-0.1,0.306-0.1,0.774-0.1,1.501c0,0.133,0.048,0.266,0.062,0.335c2.075,0,4.091,0.025,6.105-0.027
		c0.211-0.007,0.485-0.201,0.662-0.417c0.054-0.066,0.102-0.135,0.132-0.2c1.426-3.053,2.826-6.115,4.192-9.195
		c0.126-0.284,0.266-0.491,0.454-0.625c0.188-0.135,0.422-0.193,0.735-0.182c0.327,0.013,0.854-0.017,0.958-0.208
		c0.015-0.029,0.03-0.062,0.046-0.09c0.503-0.948,0.91-1.953,1.381-3.006c-0.58-0.05-0.992-0.085-1.472-0.126
		c0.084-0.268,0.121-0.476,0.207-0.662c0.906-1.964,1.806-3.932,2.739-5.884c0.444-0.931,0.828-1.915,1.336-2.804
		c0.077-0.135,0.17-0.257,0.253-0.386c0.101-0.155,0.193-0.316,0.306-0.466c0.001,0,0.001-0.001,0.002-0.002
		c1.286-1.69,3.419-2.237,5.391-2.564c0.553-0.091,1.105-0.184,1.658-0.275c3.595-0.6,7.214-1.077,10.837-1.476
		c0.161-0.018,0.321-0.034,0.482-0.052c3.691-0.385,7.39-0.68,11.102-0.828c6.126-0.245,12.272-0.13,18.382,0.364
		c1.084,0.087,2.168,0.187,3.25,0.298c0.002,0,0.004,0.001,0.006,0.001c0.926,0.096,1.851,0.204,2.772,0.319
		c0.66,0.083,1.32,0.174,1.979,0.266c0.375,0.053,0.75,0.103,1.124,0.158c0.477,0.07,0.951,0.148,1.427,0.224
		c5.096,0.821,10.135,1.968,15.049,3.569c0.29,0.094,0.584,0.189,0.877,0.286c1.948,0.677,3.882,1.406,5.811,2.129
		c0.81,0.303,1.599,0.64,2.368,1.007c1.883,0.93,3.657,2.037,5.211,3.435c0.131,0.12,0.261,0.243,0.39,0.367
		c0.15,0.144,0.302,0.287,0.447,0.438c0.299,0.31,0.593,0.628,0.873,0.965c1.795,2.154,2.71,4.573,2.058,7.396
		c-0.061,0.266-0.314,0.626-0.559,0.795c-0.08,0.056-0.161,0.09-0.23,0.093c-2.239,0.074-4.482,0.041-7.055,0.041
		c1.451-3.213,2.845-6.301,4.295-9.513l0,0c0,0,0,0,0-0.001c-1.648,0-3.287-0.228-4.84,0.04c-5.114,0.885-7.979,5.752-8.391,9.936
		c-0.037,0.375,0.001,0.72,0.102,1.022c0.304,0.911,1.174,1.469,2.292,1.454c4.681-0.055,9.363-0.112,14.044-0.201
		c0.368-0.008,0.865-0.169,1.076-0.437C378.304,22.007,378.941,20.186,378.833,18.178z M364.806,21.483
		c-0.972-0.196-1.219-0.771-0.934-1.379c0.806-1.721,1.671-3.42,2.618-5.065c0.286-0.494,0.924-0.785,1.402-1.171
		c0.11,0.104,0.219,0.208,0.329,0.312C367.08,16.62,365.939,19.064,364.806,21.483z"/>
	<path fill="#2991D0" d="M355.098,24.333c1.586,0.246,2.49-0.269,3.077-1.884c0.971-2.665,2.255-5.214,3.364-7.829
		c0.548-1.292,0.435-1.981-0.468-2.47c-0.129-0.071-0.274-0.138-0.437-0.2c-0.463-0.18-1.067-0.297-1.514-0.152
		c-1.088,0.346-2.121,0.862-3.217,1.326c-0.1-0.193-0.223-0.367-0.365-0.518c-0.433-0.452-1.055-0.692-1.814-0.604
		c-0.894,0.104-1.771,0.335-2.384,0.456c-0.018-0.013-0.032-0.022-0.049-0.034c-0.345-0.234-0.554-0.466-0.77-0.476
		c-0.961-0.049-1.929,0.023-2.889-0.04c-0.813-0.054-1.246,0.318-1.546,1.009c-1.211,2.792-2.447,5.574-3.651,8.37
		c-0.428,0.996-0.791,2.018-1.199,3.068h0.002c0,0,0,0,0,0.001c1.224,0,2.333-0.109,3.406,0.035c0.819,0.11,1.054-0.266,1.313-0.865
		c0.933-2.151,1.862-4.305,2.856-6.43c0.392-0.838,0.832-1.756,2.355-1.584c-1.273,3.009-2.498,5.902-3.766,8.898h0.002
		c0,0.001,0,0.001,0,0.003c1.187,0,2.186-0.038,3.182,0.013c0.668,0.033,1.013-0.191,1.278-0.828
		c0.938-2.227,1.946-4.424,2.923-6.632c0.334-0.752,0.78-1.331,1.96-1.245c-0.701,3.059-2.42,5.625-3.446,8.598
		C353.97,24.318,354.546,24.245,355.098,24.333z"/>
	<path fill="#2991D0" d="M299.397,4.112c-0.94-0.012-1.508,0.288-1.89,1.165c-2.266,5.209-4.57,10.397-6.849,15.601
		c-0.593,1.349-1.143,2.714-1.735,4.131c1.173,0,2.168,0.048,3.154-0.028c0.292-0.022,0.68-0.326,0.818-0.604
		c0.617-1.236,1.155-2.512,1.729-3.771c0.251-0.551,0.518-1.095,0.872-1.847c0.802,1.919,1.482,3.586,2.201,5.235
		c0.139,0.316,0.417,0.788,0.656,0.804c1.253,0.081,2.517,0.037,3.956,0.037c-0.961-2.317-1.81-4.38-2.673-6.435
		c-0.132-0.313-0.222-0.586-0.196-0.849c0.025-0.264,0.168-0.518,0.501-0.795c1.888-1.566,3.683-3.243,5.511-4.882
		c0.487-0.438,0.962-0.886,1.63-1.502c-0.593-0.101-0.921-0.203-1.248-0.201c-0.744,0.004-1.505,0.17-2.23,0.068
		c-1.28-0.18-2.136,0.388-2.973,1.243c-0.854,0.874-1.816,1.64-2.956,2.652l0,0c0.118-0.451,0.14-0.62,0.207-0.769
		c1.016-2.266,2.049-4.522,3.057-6.791c0.506-1.145,0.858-1.752,0.839-2.075C301.753,4.085,301.113,4.134,299.397,4.112z"/>
	<path fill="#2991D0" d="M332.615,6.158c-0.997-0.146-1.362,0.339-1.706,1.121c-2.036,4.636-4.106,9.258-6.16,13.887
		c-0.466,1.049-0.901,2.112-1.399,3.277c1.486,0,2.796,0,4.208,0c0.617-1.374,1.229-2.736,1.84-4.096
		c0.551-1.228,0.997-2.521,1.703-3.65c0.339-0.543,1.167-0.779,1.775-1.155c0.015,0.623,0.054,1.247,0.035,1.868
		c-0.006,0.198-0.154,0.395-0.239,0.593c-0.916,2.105-1.831,4.209-2.787,6.405c1.359,0,2.591,0,3.854,0
		c1.292-2.979,2.606-5.964,3.882-8.966c0.093-0.22,0.16-0.436,0.2-0.644c0.285-1.458-0.688-2.569-2.354-2.518
		c-0.828,0.025-1.652,0.186-2.622,0.302c0.918-2.103,1.833-4.202,2.79-6.396C334.512,6.189,333.545,6.297,332.615,6.158z"/>
	<path fill="#2991D0" d="M285.322,17.371c0.682-1.503,1.378-3.039,2.113-4.66c-0.288,0-0.563,0.002-0.828,0.005
		c-0.796,0.007-1.503,0.017-2.208-0.014c-0.789-0.034-1.229,0.29-1.548,1.015c-1.099,2.493-2.235,4.97-3.395,7.436
		c-0.411,0.875-0.402,1.752-0.05,2.432c0.354,0.681,1.05,1.165,2.014,1.25c1.337,0.12,2.699,0.03,4.045-0.057
		c1.477-0.097,2.47-0.906,3.058-2.273c0.98-2.281,2.01-4.542,3.006-6.816c0.42-0.959,0.808-1.934,1.283-3.078l0,0
		c-1.174,0-2.165,0.035-3.151-0.014c-0.557-0.028-0.799,0.188-1.015,0.679c-1.051,2.405-2.142,4.793-3.231,7.179
		c-0.279,0.611-0.576,1.222-0.943,1.779c-0.097,0.148-0.433,0.267-0.62,0.251c-0.036-0.003-0.077-0.003-0.099-0.018
		c-0.2-0.141-0.343-0.505-0.332-0.768c0.013-0.298,0.21-0.592,0.341-0.883C284.278,19.677,284.796,18.533,285.322,17.371z"/>
	<path fill="#2991D0" d="M315.316,19.769c-0.199,0.004-0.443,0.063-0.588,0.187c-0.954,0.836-0.897,2.869,0.076,3.705
		c0.018,0.015,0.037,0.024,0.054,0.039c0.049,0.038,0.099,0.078,0.152,0.111l0,0l0,0c1.812,1.101,3.828,1.006,5.739,0.488
		c3.561-0.964,4.436-4.833,1.767-7.38l0,0c-0.001,0-0.001,0-0.001,0c-0.133-0.126-0.275-0.249-0.418-0.37
		c-0.296-0.252-0.59-0.507-0.789-0.819c-0.243-0.385-0.361-0.941-0.297-1.385c0.032-0.213,0.608-0.452,0.956-0.485
		c0.423-0.038,0.681,0.047,0.799,0.313c0.096,0.215,0.103,0.55,0.019,1.043c-0.027,0.155-0.063,0.328-0.106,0.519
		c0.977,0,1.859,0.001,2.742-0.001c0.985-0.003,1.425-0.566,1.184-1.56c-0.177-0.729-0.575-1.261-1.337-1.511
		c-0.216-0.07-0.432-0.132-0.647-0.186c-1.515-0.378-3.044-0.358-4.584-0.067c-1.11,0.208-2.077,0.668-2.716,1.681
		c-0.786,1.245-0.533,2.461,0.721,3.93c0.656,0.771,1.259,1.623,1.694,2.529c0.146,0.306-0.251,0.934-0.517,1.337
		c-0.053,0.079-0.341,0.088-0.556,0.063c-0.129-0.016-0.231-0.043-0.242-0.077c-0.123-0.389-0.145-0.824-0.12-1.236
		c0.016-0.259,0.181-0.508,0.322-0.874c0,0,0,0-0.001,0v-0.001C317.441,19.761,316.377,19.751,315.316,19.769z"/>
	<path fill="#2991D0" d="M340.193,13.153c-0.632,1.574-1.37,3.108-2.045,4.666c-0.925,2.136-1.833,4.279-2.828,6.608
		c1.379,0,2.514,0.035,3.645-0.025c0.265-0.013,0.625-0.287,0.745-0.537c0.607-1.245,1.149-2.519,1.712-3.785
		c1.177-2.647,2.354-5.297,3.568-8.035c-0.568,0-1.111,0.018-1.638,0.023c-0.525,0.007-1.036,0.001-1.544-0.044
		C340.88,11.938,340.508,12.368,340.193,13.153z"/>
	<path fill="#FFFFFF" d="M366.491,15.038c-0.947,1.645-1.813,3.344-2.618,5.065c-0.285,0.608-0.038,1.181,0.935,1.377
		c1.131-2.418,2.274-4.86,3.417-7.302c-0.111-0.104-0.22-0.209-0.33-0.313C367.416,14.252,366.777,14.544,366.491,15.038z"/>
</g>
</svg>
