<?xml version="1.0" encoding="utf-8"?>
<!-- Generator: Adobe Illustrator 16.0.3, SVG Export Plug-In . SVG Version: 6.00 Build 0)  -->
<!DOCTYPE svg PUBLIC "-//W3C//DTD SVG 1.1//EN" "http://www.w3.org/Graphics/SVG/1.1/DTD/svg11.dtd">
<svg version="1.1" id="レイヤー_1" xmlns="http://www.w3.org/2000/svg" xmlns:xlink="http://www.w3.org/1999/xlink" x="0px"
	 y="0px" width="196.799px" height="71.677px" viewBox="39.109 26.382 196.799 71.677"
	 enable-background="new 39.109 26.382 196.799 71.677" xml:space="preserve">
<path fill="none" stroke="#0F2950" stroke-width="3" stroke-miterlimit="10" d="M40.603,62.639"/>
<g>
	<path fill="#2991D0" d="M225.135,74.848c-0.043,0.034-0.089,0.063-0.132,0.099c-1.518,0.9-2.953,2.105-4.622,3.067
		c-0.575,0.332-1.156,0.651-1.738,0.969c-0.919,0.5-1.845,0.979-2.777,1.438c-0.251,0.125-0.503,0.246-0.755,0.367
		c-8.351,3.992-13.117,5.492-22.118,7.543c-2.457,0.561-9.81,2.343-12.31,2.66c-23.862,3.031-36.626,3.174-43.483,3.248
		c-6.026,0.063-13.066-0.353-19.095-0.637c-10.854-0.514-21.516-2.408-32.11-4.689c-6.097-1.313-12.083-2.979-17.961-5.033
		c-0.271-0.096-0.537-0.195-0.807-0.291c-0.684-0.244-1.367-0.487-2.049-0.742c-1.011-0.378-2.02-0.768-3.022-1.169
		c-1.975-0.789-4.41-0.421-6.635-0.585c-0.04,0.193-0.079,0.386-0.118,0.576l0,0c0,0.002,0,0.002,0,0.002
		c1.165,0.584,2.336,1.152,3.494,1.75c5.999,3.097,12.32,5.388,18.771,7.221c0.922,0.262,1.846,0.514,2.772,0.758
		c6.488,1.711,13.127,2.944,19.762,3.988c0.031,0.005,0.062,0.008,0.092,0.014c11.375,1.782,23.37,2.454,34.874,2.627
		c0.029,0,0.058,0.002,0.087,0.002c6.45,0.096,12.932-0.043,19.354-0.598c0.699-0.061,1.399-0.134,2.101-0.197
		c7.636-0.636,15.246-1.601,22.836-2.769c0.231-0.035,0.464-0.065,0.694-0.103c1.38-0.215,2.753-0.455,4.123-0.711
		c0.061-0.013,0.121-0.025,0.182-0.037c8.415-1.59,16.646-3.968,24.647-7.115c1.943-0.766,3.88-1.551,5.788-2.391
		c0.043-0.02,0.086-0.037,0.129-0.057c0.624-0.275,1.243-0.561,1.86-0.85c0.278-0.131,0.558-0.262,0.834-0.396
		c0.34-0.164,0.677-0.335,1.014-0.505c0.516-0.26,1.027-0.521,1.537-0.794c0.02-0.011,0.038-0.022,0.059-0.033
		c2.415-1.301,4.723-2.784,6.82-4.522c0.162-0.139,0.327-0.275,0.488-0.422c0.676-0.582,1.321-1.195,1.943-1.838
		c0.319-0.31,0.646-0.623,0.993-0.943C228.283,73.229,226.711,73.603,225.135,74.848z"/>
	<path fill="#2D68AD" d="M98.24,62.621c-0.586,1.24-1.026,2.14-1.44,3.049C97.214,64.761,97.654,63.861,98.24,62.621z"/>
	<path fill="#2D68AD" d="M105.584,59.314c-0.551,0.457-0.785,0.877-0.827,1.313C104.799,60.192,105.033,59.772,105.584,59.314
		c3.118-2.587,6.082-5.359,9.101-8.064c0.805-0.721,1.591-1.463,2.693-2.479c-1.103,1.017-1.889,1.757-2.693,2.479
		C111.665,53.955,108.701,56.726,105.584,59.314z"/>
	<path fill="#2D68AD" d="M102.18,53.712c-0.11,0.248-0.146,0.529-0.341,1.273l0,0C102.035,54.242,102.07,53.96,102.18,53.712
		c1.679-3.74,3.386-7.467,5.049-11.217c0.837-1.889,1.419-2.891,1.386-3.425c0.032,0.535-0.549,1.537-1.386,3.425
		C105.567,46.244,103.86,49.972,102.18,53.712z"/>
	<path fill="#2991D0" d="M120.706,57.358c0.561-1.216,1.09-2.444,1.671-3.782c0.194-0.445,0.394-0.901,0.602-1.375
		c-1.092,0-2.091-0.023-3.04-0.029c-0.951-0.004-1.854,0.009-2.75,0.084c-0.593,0.049-1.403,0.598-1.652,1.134
		c-1.858,3.978-3.661,7.985-5.356,12.038c-0.919,2.195-0.429,4.219,1.611,5.38c1.494,0.851,3.375,1.354,5.101,1.403
		c0.34,0.01,0.667,0.016,0.984,0.017c4.759,0.009,7.155-1.131,8.991-5.829c0.935-2.39,2.103-4.688,3.139-7.039
		c1.044-2.369,2.057-4.752,3.234-7.482c-0.57,0-1.118,0.002-1.649,0.006c-0.531,0.003-1.044,0.007-1.547,0.009
		c-1.004,0.003-1.963,0-2.92-0.03l0,0l0,0c-1.167-0.037-1.787,0.414-2.26,1.502c-1.982,4.557-4.06,9.072-6.101,13.606
		c-0.294,0.653-0.718,1.263-1.31,1.276c-0.197,0.004-0.413-0.057-0.648-0.203c-0.345-0.215-0.344-1.479-0.082-2.086
		C117.973,63.056,119.382,60.226,120.706,57.358z"/>
	<path fill="#2D68AD" d="M80.03,68.361c0.605-0.926,1.097-1.933,1.559-2.941c1.802-3.941,3.601-7.885,5.338-11.856
		c0.355-0.813,0.756-1.168,1.677-1.122c1.628,0.08,3.264,0.021,5.203,0.021l0,0c-1.939,0-3.575,0.059-5.204-0.021
		c-0.921-0.046-1.321,0.311-1.677,1.122c-1.737,3.972-3.537,7.916-5.338,11.856C81.126,66.428,80.634,67.436,80.03,68.361
		c-0.159,0.24-0.714,0.438-1.024,0.412C79.315,68.801,79.87,68.604,80.03,68.361z"/>
	<path fill="#2D68AD" d="M84.926,52.628c-1.214,2.679-2.363,5.215-3.489,7.697C82.562,57.843,83.712,55.307,84.926,52.628z"/>
	<path fill="#2991D0" d="M71.747,66.572c1.914-4.072,3.792-8.164,5.607-12.281c0.525-1.196,1.254-1.732,2.556-1.676
		c1.165,0.049,2.333,0.033,3.646,0.021c-1.313,0.012-2.481,0.027-3.646-0.021c-1.304-0.057-2.03,0.48-2.557,1.676
		C75.538,58.408,73.659,62.498,71.747,66.572c-0.68,1.444-0.665,2.895-0.082,4.018C71.083,69.466,71.068,68.018,71.747,66.572z"/>
	<path fill="#2991D0" d="M178.563,42.346c-0.234,0.011-0.46,0.041-0.677,0.086c-1.509,0.321-2.52,1.46-2.528,2.938
		c-0.014,2.01,1.254,3.334,3.151,3.295c2.317-0.047,3.599-1.254,3.568-3.362C182.057,43.676,180.371,42.259,178.563,42.346z"/>
	<path fill="#2991D0" d="M235.888,61.66c-0.01-0.184-0.008-0.365-0.024-0.552c-0.593-6.315-4.431-10.751-9.06-14.466
		c-6.159-4.943-13.539-7.64-20.854-10.327c-1.648-0.606-3.309-1.178-4.978-1.718c-10.03-3.253-20.335-5.332-30.789-6.548
		c-1.741-0.203-3.486-0.382-5.232-0.538c-8.786-0.784-17.646-1.149-26.513-1.103c-0.398-0.004-0.798-0.012-1.195-0.016
		c-7.073-0.059-14.197,0.123-21.216,0.925c-0.734,0.084-1.466,0.192-2.2,0.282c-6.39,0.583-12.753,1.371-19.063,2.377
		c-6.271,1-12.504,2.354-18.502,4.465c-5.896,2.076-11.753,4.317-17.461,6.858c-5.753,2.562-11.213,5.741-15.278,10.737
		c-1.231,1.513-2.333,3.076-3.132,4.742c-1.181,2.465-1.688,5.153-0.91,8.25c0.813,3.223,1.942,6.2,4.771,8.397l0.001-0.001l0,0
		c0.251-0.287,0.482-0.551,0.714-0.814c0.299-0.342,0.59-0.675,0.872-0.996c0.104-0.117,0.212-0.242,0.315-0.359
		c-2.136-2.909-3.461-6.038-3.429-9.6c0.022-2.386,0.724-4.424,1.854-6.203s2.688-3.301,4.426-4.65
		c5.294-4.115,11.372-6.924,17.5-9.58c0.859-0.374,1.729-0.787,2.636-0.962c0.64-0.122,1.603-0.1,1.953,0.286
		c0.302,0.33,0.107,1.34-0.154,1.92c-1.833,4.053-3.68,8.102-5.688,12.066c-0.353,0.697-1.456,1.307-2.282,1.412
		c-1.799,0.227-3.642,0.11-5.468,0.119c-2.293,0.012-4.105,0.71-5.307,2.333c-0.401,0.541-0.733,1.185-0.993,1.94
		c-0.32,0.931-0.807,1.806-1.194,2.715c-0.289,0.679-0.54,1.374-0.934,2.389c1.812-0.285,3.616,0.455,4.585-0.933
		c0.139-0.199,0.261-0.441,0.364-0.736c0.143-0.411,0.315-0.758,0.521-1.044c0.615-0.857,1.515-1.182,2.752-1.148
		c1.215,0.031,2.435-0.131,3.651-0.145c0.936-0.011,1.513,0.299,0.998,1.398c-1.413,3.025-2.809,6.058-4.199,9.091
		c-0.194,0.423-0.404,0.809-0.643,1.151c-0.718,1.027-1.695,1.666-3.287,1.744c-1.952,0.096-2.682,0.197-2.954,1.043
		c-0.165,0.506-0.164,1.279-0.165,2.481c0,0.219,0.081,0.437,0.103,0.552c3.427,0,6.757,0.041,10.084-0.045
		c0.349-0.011,0.801-0.331,1.092-0.688c0.091-0.109,0.169-0.223,0.22-0.33c2.354-5.043,4.667-10.103,6.923-15.188
		c0.208-0.47,0.44-0.813,0.75-1.034c0.31-0.222,0.698-0.32,1.215-0.299c0.541,0.021,1.412-0.029,1.582-0.344
		c0.026-0.049,0.05-0.102,0.076-0.148c0.831-1.568,1.503-3.227,2.282-4.965c-0.96-0.082-1.64-0.141-2.432-0.208
		c0.138-0.444,0.2-0.786,0.341-1.093c1.499-3.244,2.984-6.495,4.526-9.719c0.735-1.537,1.367-3.164,2.207-4.632
		c0.127-0.221,0.279-0.422,0.417-0.635c0.166-0.258,0.32-0.525,0.505-0.77c0.001-0.001,0.002-0.002,0.003-0.004
		c2.125-2.792,5.648-3.696,8.904-4.235c0.913-0.151,1.826-0.304,2.739-0.456c5.938-0.99,11.915-1.779,17.899-2.436
		c0.267-0.029,0.531-0.057,0.797-0.086c6.097-0.636,12.206-1.122,18.337-1.368c10.118-0.405,20.269-0.215,30.361,0.601
		c1.79,0.145,3.58,0.309,5.367,0.493c0.004,0,0.008,0.001,0.011,0.001c1.528,0.158,3.055,0.338,4.578,0.527
		c1.092,0.138,2.181,0.287,3.271,0.44c0.618,0.086,1.238,0.169,1.856,0.261c0.786,0.116,1.571,0.245,2.356,0.369
		c8.417,1.357,16.741,3.251,24.856,5.895c0.48,0.156,0.965,0.314,1.449,0.472c3.218,1.119,6.411,2.324,9.598,3.518
		c1.335,0.5,2.64,1.056,3.911,1.662c3.11,1.535,6.041,3.365,8.606,5.674c0.217,0.197,0.431,0.4,0.644,0.605
		c0.248,0.238,0.498,0.475,0.739,0.723c0.494,0.512,0.979,1.037,1.441,1.594c2.966,3.559,4.477,7.555,3.4,12.218
		c-0.1,0.437-0.521,1.033-0.923,1.313c-0.133,0.092-0.265,0.148-0.381,0.152c-3.698,0.123-7.404,0.068-11.652,0.068
		c2.396-5.307,4.698-10.407,7.093-15.713l0,0c0,0,0,0,0-0.002c-2.722,0-5.429-0.375-7.993,0.068
		c-8.448,1.461-13.179,9.5-13.859,16.41c-0.061,0.62,0.002,1.188,0.168,1.689c0.501,1.506,1.938,2.425,3.786,2.402
		c7.731-0.091,15.465-0.186,23.195-0.332c0.609-0.014,1.43-0.279,1.779-0.722C235.015,67.984,236.065,64.977,235.888,61.66z
		 M212.719,67.117c-1.604-0.324-2.013-1.271-1.542-2.276c1.331-2.843,2.759-5.648,4.325-8.367c0.472-0.817,1.527-1.298,2.316-1.935
		c0.182,0.172,0.361,0.344,0.544,0.515C216.476,59.087,214.59,63.123,212.719,67.117z"/>
	<path fill="#2991D0" d="M196.684,71.826c2.62,0.406,4.113-0.442,5.083-3.111c1.604-4.402,3.725-8.612,5.556-12.932
		c0.906-2.133,0.719-3.272-0.772-4.08c-0.213-0.117-0.453-0.226-0.721-0.33c-0.765-0.297-1.763-0.489-2.5-0.252
		c-1.797,0.571-3.504,1.424-5.313,2.19c-0.164-0.319-0.367-0.606-0.604-0.854c-0.714-0.748-1.741-1.144-2.997-0.998
		c-1.475,0.172-2.925,0.555-3.937,0.754c-0.029-0.02-0.052-0.037-0.079-0.057c-0.571-0.385-0.917-0.768-1.273-0.785
		c-1.587-0.08-3.184,0.039-4.77-0.065c-1.342-0.089-2.059,0.524-2.554,1.665c-2,4.611-4.043,9.208-6.03,13.826
		c-0.708,1.644-1.308,3.332-1.982,5.068c0.001,0,0.003,0,0.004,0c0,0-0.001,0-0.001,0.002c2.021,0,3.854-0.181,5.626,0.058
		c1.354,0.183,1.741-0.438,2.171-1.429c1.54-3.554,3.075-7.111,4.716-10.621c0.648-1.385,1.375-2.899,3.891-2.616
		c-2.104,4.97-4.125,9.75-6.219,14.698c0.001,0,0.002,0,0.003,0c0,0.002-0.001,0.002-0.001,0.004c1.962,0,3.612-0.063,5.256,0.021
		c1.104,0.056,1.673-0.315,2.112-1.366c1.549-3.678,3.214-7.307,4.827-10.955c0.551-1.242,1.289-2.199,3.238-2.056
		c-1.159,5.052-3.997,9.29-5.693,14.199C194.821,71.802,195.772,71.682,196.684,71.826z"/>
	<path fill="#2991D0" d="M104.682,38.427c-1.553-0.021-2.489,0.474-3.12,1.924c-3.741,8.602-7.548,17.174-11.313,25.766
		c-0.977,2.228-1.885,4.483-2.866,6.824c1.938,0,3.581,0.078,5.21-0.047c0.483-0.036,1.123-0.538,1.353-0.998
		c1.018-2.041,1.908-4.148,2.854-6.227c0.415-0.91,0.854-1.809,1.44-3.051c1.325,3.17,2.448,5.924,3.637,8.648
		c0.228,0.521,0.688,1.301,1.083,1.326c2.071,0.134,4.156,0.063,6.534,0.063c-1.587-3.828-2.988-7.234-4.414-10.629
		c-0.217-0.518-0.366-0.968-0.324-1.402c0.042-0.436,0.276-0.855,0.827-1.313c3.118-2.587,6.082-5.358,9.101-8.065
		c0.805-0.722,1.591-1.463,2.693-2.479c-0.979-0.166-1.521-0.336-2.062-0.333c-1.229,0.006-2.485,0.282-3.684,0.114
		c-2.114-0.297-3.526,0.641-4.909,2.053c-1.412,1.443-3.001,2.709-4.883,4.381l0,0c0.195-0.744,0.23-1.025,0.341-1.271
		c1.679-3.741,3.386-7.469,5.049-11.217c0.837-1.889,1.418-2.891,1.386-3.427C108.574,38.381,107.517,38.463,104.682,38.427z"/>
	<path fill="#2991D0" d="M159.549,41.808c-1.647-0.242-2.251,0.557-2.818,1.85c-3.364,7.657-6.783,15.291-10.175,22.938
		c-0.769,1.733-1.489,3.489-2.311,5.413c2.455,0,4.618,0,6.949,0c1.021-2.271,2.029-4.52,3.04-6.764
		c0.91-2.027,1.647-4.164,2.813-6.031c0.56-0.896,1.927-1.288,2.932-1.908c0.025,1.029,0.088,2.059,0.059,3.086
		c-0.01,0.328-0.255,0.652-0.396,0.977c-1.512,3.479-3.024,6.953-4.603,10.582c2.245,0,4.278,0,6.364,0
		c2.135-4.92,4.306-9.852,6.412-14.81c0.153-0.362,0.264-0.718,0.331-1.062c0.47-2.408-1.136-4.244-3.889-4.158
		c-1.367,0.041-2.728,0.306-4.331,0.498c1.516-3.473,3.027-6.941,4.608-10.564C162.682,41.857,161.086,42.035,159.549,41.808z"/>
	<path fill="#2991D0" d="M81.436,60.326c1.125-2.482,2.275-5.019,3.489-7.697c-0.476,0-0.93,0.004-1.369,0.008
		c-1.313,0.012-2.481,0.027-3.646-0.021c-1.302-0.057-2.03,0.479-2.556,1.676c-1.815,4.117-3.693,8.209-5.607,12.281
		c-0.679,1.445-0.664,2.895-0.082,4.018c0.583,1.123,1.733,1.922,3.326,2.064c2.208,0.197,4.458,0.049,6.681-0.095
		c2.439-0.159,4.08-1.497,5.05-3.755c1.62-3.768,3.32-7.502,4.965-11.26c0.693-1.584,1.334-3.192,2.12-5.084h-0.001
		c-1.939,0-3.575,0.059-5.204-0.021c-0.92-0.046-1.32,0.311-1.676,1.122c-1.737,3.972-3.537,7.915-5.338,11.856
		c-0.462,1.01-0.952,2.017-1.559,2.94c-0.159,0.243-0.715,0.44-1.024,0.413c-0.06-0.005-0.127-0.005-0.162-0.029
		c-0.332-0.231-0.566-0.834-0.549-1.267c0.02-0.493,0.347-0.979,0.563-1.459C79.71,64.135,80.566,62.246,81.436,60.326z"/>
	<path fill="#2991D0" d="M130.975,64.287c-0.328,0.006-0.732,0.103-0.969,0.308c-1.577,1.382-1.483,4.739,0.125,6.12
		c0.028,0.023,0.061,0.041,0.088,0.064c0.082,0.063,0.163,0.129,0.252,0.184l0,0c0,0,0,0,0.001,0
		c2.992,1.818,6.322,1.662,9.479,0.807c5.881-1.592,7.326-7.982,2.917-12.189l0,0c-0.001,0-0.001,0-0.001,0
		c-0.22-0.209-0.455-0.412-0.69-0.611c-0.488-0.417-0.975-0.838-1.303-1.355c-0.402-0.635-0.597-1.553-0.49-2.287
		c0.052-0.35,1.004-0.748,1.578-0.801c0.699-0.064,1.125,0.077,1.32,0.516c0.159,0.357,0.168,0.908,0.029,1.723
		c-0.044,0.259-0.103,0.544-0.175,0.857c1.613,0,3.071,0.002,4.529-0.002c1.629-0.004,2.353-0.935,1.955-2.576
		c-0.292-1.205-0.95-2.082-2.208-2.493c-0.356-0.117-0.713-0.22-1.07-0.308c-2.501-0.625-5.026-0.59-7.569-0.111
		c-1.835,0.345-3.432,1.105-4.487,2.775c-1.299,2.057-0.881,4.065,1.189,6.492c1.085,1.273,2.08,2.68,2.799,4.178
		c0.24,0.504-0.414,1.541-0.853,2.207c-0.087,0.131-0.562,0.147-0.917,0.105c-0.213-0.025-0.382-0.07-0.399-0.127
		c-0.203-0.641-0.24-1.361-0.2-2.043c0.025-0.426,0.298-0.837,0.534-1.443c0,0-0.001,0-0.002,0v-0.001
		C134.485,64.274,132.73,64.258,130.975,64.287z"/>
	<path fill="#2991D0" d="M172.066,53.358c-1.043,2.601-2.264,5.134-3.378,7.708c-1.528,3.528-3.028,7.07-4.672,10.915
		c2.279,0,4.153,0.058,6.02-0.041c0.437-0.022,1.033-0.475,1.23-0.887c1.004-2.056,1.899-4.161,2.828-6.251
		c1.944-4.375,3.887-8.75,5.896-13.273c-0.94,0-1.836,0.029-2.706,0.039c-0.869,0.01-1.713,0.002-2.55-0.074
		C173.2,51.352,172.587,52.064,172.066,53.358z"/>
	<path fill="#FFFFFF" d="M215.504,56.473c-1.566,2.718-2.994,5.524-4.325,8.367c-0.471,1.006-0.063,1.952,1.542,2.276
		c1.869-3.994,3.758-8.029,5.645-12.063c-0.183-0.171-0.362-0.343-0.544-0.515C217.031,55.175,215.974,55.656,215.504,56.473z"/>
</g>
</svg>
