<?xml version="1.0" encoding="utf-8"?>
<!-- Generator: Adobe Illustrator 16.0.3, SVG Export Plug-In . SVG Version: 6.00 Build 0)  -->
<!DOCTYPE svg PUBLIC "-//W3C//DTD SVG 1.1//EN" "http://www.w3.org/Graphics/SVG/1.1/DTD/svg11.dtd">
<svg version="1.1" id="レイヤー_1" xmlns="http://www.w3.org/2000/svg" xmlns:xlink="http://www.w3.org/1999/xlink" x="0px"
	 y="0px" width="77.023px" height="20.928px" viewBox="17.21 9.962 77.023 20.928"
	 enable-background="new 17.21 9.962 77.023 20.928" xml:space="preserve">
<g>
	<path fill="#0075C2" d="M38.076,9.962L35.302,25.82H22.877L25.65,9.962h-5.656l-2.723,15.58c-0.183,1.039-0.333,5.349,5.792,5.349
		h10.609c5.956,0,6.944-3.116,7.334-5.349l2.725-15.579L38.076,9.962L38.076,9.962z"/>
	<path fill="#0075C2" d="M63.437,9.962H46.224L42.563,30.89h17.319c5.956,0,6.944-3.117,7.334-5.35l0.463-2.65
		c0.255-1.443-0.496-2.531-1.73-2.831l0.024-0.139c1.429,0.018,2.387-0.923,2.679-2.61l0.332-1.882
		C69.066,14.963,69.795,9.962,63.437,9.962z M62.912,17.869H52.756l-0.813,4.65h10.156l-0.578,3.302H49.179l1.915-10.952h12.343
		L62.912,17.869z"/>
	<path fill="#0075C2" d="M78.703,9.962c-6.698,0-7.329,3.712-7.614,5.348L69.3,25.542c-0.174,0.983-0.214,5.349,5.792,5.349h15.483
		l0.887-5.068h-16.5l1.916-10.952h16.499l0.858-4.906H78.703V9.962z"/>
	<polygon fill="#0075C2" points="77.603,22.518 91.759,22.518 92.572,17.869 78.417,17.869 	"/>
</g>
</svg>
